<?xml version="1.0" encoding="UTF-8"?>
<svg version="1.1" xmlns="http://www.w3.org/2000/svg" width="562" height="464">
<path d="M0 0 C185.46 0 370.92 0 562 0 C562 249.08587031 562 249.08587031 556.25 271.625 C555.99323486 272.65584717 555.73646973 273.68669434 555.47192383 274.7487793 C551.0005363 292.24837805 544.88783737 308.75953657 537 325 C536.47865479 326.081604 536.47865479 326.081604 535.94677734 327.18505859 C507.78718299 384.88081978 455.15520755 430.06622675 394.765625 451.10546875 C371.76878614 458.78783573 347.83024634 464.13153989 323.49926758 464.16113281 C322.50087357 464.16609772 321.50247955 464.17106262 320.47383118 464.17617798 C317.1973906 464.19068135 313.92099855 464.19758468 310.64453125 464.203125 C309.51295782 464.20595238 308.38138439 464.20877975 307.21552086 464.21169281 C301.21732733 464.22664365 295.21915756 464.23589684 289.22094727 464.24023438 C283.09151674 464.24568769 276.96231186 464.26966099 270.83295155 464.29820633 C266.0633231 464.31703902 261.29374654 464.32204932 256.52408409 464.32357025 C254.2683458 464.32655519 252.01260747 464.33443852 249.75690651 464.34775543 C230.36907238 464.45397023 211.22029097 463.05765782 192.375 458.25 C191.34415283 457.99323486 190.31330566 457.73646973 189.2512207 457.47192383 C171.75162195 453.0005363 155.24046343 446.88783737 139 439 C138.27893066 438.65243652 137.55786133 438.30487305 136.81494141 437.94677734 C79.11918022 409.78718299 33.93377325 357.15520755 12.89453125 296.765625 C-18.2677829 203.48256282 0 87.59848738 0 0 Z " fill="#E2F4FE" transform="translate(0,0)"/>
<path d="M0 0 C1.7324102 0.01507854 3.46483314 0.02876132 5.19726562 0.04101562 C9.40266346 0.07376014 13.60743793 0.12536564 17.8125 0.1875 C12.60344638 10.68072578 7.28207526 21.10040386 1.77539062 31.44140625 C1.02225586 32.87033203 1.02225586 32.87033203 0.25390625 34.328125 C-0.19267334 35.16891602 -0.63925293 36.00970703 -1.09936523 36.87597656 C-2.09487601 38.99073897 -2.72006428 40.9051786 -3.1875 43.1875 C0.7725 43.6825 0.7725 43.6825 4.8125 44.1875 C4.36284322 50.53979422 2.77230426 54.99811945 -0.25 60.5625 C-3.03328788 65.14559503 -3.03328788 65.14559503 -4.1875 70.1875 C-3.5275 70.1875 -2.8675 70.1875 -2.1875 70.1875 C-1.8575 69.1975 -1.5275 68.2075 -1.1875 67.1875 C-0.8575 67.8475 -0.5275 68.5075 -0.1875 69.1875 C-35.17803223 122.41680425 -35.17803223 122.41680425 -54.90240479 128.73699951 C-58.05717714 129.35895455 -61.09221254 129.33150191 -64.30761719 129.34863281 C-65.01711517 129.35359772 -65.72661316 129.35856262 -66.45761108 129.36367798 C-68.79987569 129.37825645 -71.14207252 129.38509506 -73.484375 129.390625 C-75.11859131 129.39638085 -76.75280762 129.40213853 -78.38702393 129.40789795 C-81.81335768 129.41839626 -85.23966806 129.42424629 -88.66601562 129.42773438 C-93.04164448 129.43321076 -97.41696085 129.45722526 -101.79249191 129.48570633 C-105.16925946 129.50439607 -108.54595276 129.50954171 -111.92276764 129.51107025 C-113.5350032 129.514084 -115.14723785 129.52206908 -116.7594223 129.53525543 C-132.27992424 129.65311961 -132.27992424 129.65311961 -139.1875 126.1875 C-140.1775 125.6925 -141.1675 125.1975 -142.1875 124.6875 C-154.34380715 114.55724404 -160.1619453 98.01187003 -164.1875 83.1875 C-164.4453125 82.25969727 -164.703125 81.33189453 -164.96875 80.37597656 C-168.22133043 68.66886509 -171.33194975 56.97198805 -173.83105469 45.07983398 C-175.09322981 39.23088134 -176.90038875 33.71063035 -179.1875 28.1875 C-184.91912973 34.31298494 -190.5742385 40.38571278 -195.5546875 47.15234375 C-197.1875 49.1875 -197.1875 49.1875 -199.6328125 51.20703125 C-203.39762821 55.59931625 -204.56640666 60.45025198 -206.1875 65.9375 C-206.53288818 67.05697021 -206.87827637 68.17644043 -207.23413086 69.32983398 C-208.95340072 74.93425944 -210.58637808 80.56012355 -212.17089844 86.20385742 C-216.71748914 102.26835012 -222.35796877 117.85077896 -237.53027344 126.83935547 C-249.02323233 132.67031091 -260.52956265 132.70357077 -273.0625 132.4375 C-274.73305118 132.41737679 -276.40362613 132.39913645 -278.07421875 132.3828125 C-282.11258144 132.3393403 -286.14976741 132.27064672 -290.1875 132.1875 C-288.91917312 129.62373236 -287.64793635 127.06147788 -286.375 124.5 C-286.01857422 123.77876953 -285.66214844 123.05753906 -285.29492188 122.31445312 C-283.76351383 119.23758742 -282.22849805 116.2541332 -280.42578125 113.32421875 C-278.97857903 111.23859543 -278.97857903 111.23859543 -279.1875 108.6875 C-279.1875 105.42808563 -277.85748086 103.9612243 -276.1875 101.1875 C-275.57645364 99.50331176 -275.02584809 97.7962061 -274.53125 96.07421875 C-274.08857788 94.5895813 -274.08857788 94.5895813 -273.63696289 93.07495117 C-273.32364014 92.01896729 -273.01031738 90.9629834 -272.6875 89.875 C-268.90715758 77.52903702 -263.86113655 66.02751722 -258.18383789 54.44799805 C-257.26438584 52.3619391 -256.65940534 50.41237893 -256.1875 48.1875 C-257.1775 48.6825 -257.1775 48.6825 -258.1875 49.1875 C-254.60042443 38.87700531 -245.53858855 30.0030075 -238.1875 22.1875 C-237.57648438 21.50042969 -236.96546875 20.81335938 -236.3359375 20.10546875 C-232.38920481 15.84803583 -228.08117404 12.54693078 -223.25 9.375 C-222.68901611 9.00173584 -222.12803223 8.62847168 -221.55004883 8.24389648 C-212.18291178 2.32377989 -203.28880411 1.73399784 -192.37109375 1.7890625 C-190.94580436 1.7870369 -189.52051598 1.78412144 -188.0952301 1.78036499 C-185.12238603 1.77596585 -182.14981414 1.78229507 -179.17700195 1.79638672 C-175.38547617 1.81349318 -171.59458697 1.80361336 -167.80308437 1.78566933 C-164.86464219 1.77477912 -161.92634858 1.77830139 -158.98790169 1.7860527 C-157.59059637 1.78803947 -156.19327711 1.7856496 -154.79598808 1.77861404 C-143.40469575 1.73382103 -135.04675686 2.95963917 -126.3203125 10.8828125 C-119.2681624 18.09960423 -112.58268302 29.04786005 -111.1875 39.1875 C-110.1975 39.5175 -109.2075 39.8475 -108.1875 40.1875 C-107.5275 41.1775 -106.8675 42.1675 -106.1875 43.1875 C-103.87743053 43.88371948 -103.87743053 43.88371948 -101.1875 44.1875 C-99.18696986 44.51763675 -97.18689969 44.85058458 -95.1875 45.1875 C-91.25299974 58.46643837 -88.07316625 71.90352877 -84.95507812 85.39208984 C-84.70318977 86.47849007 -84.70318977 86.47849007 -84.44621277 87.58683777 C-83.98543252 89.57657653 -83.52741537 91.56695459 -83.06958008 93.55737305 C-82.19997123 97.13617568 -81.22393301 100.65429616 -80.1875 104.1875 C-65.07202642 92.43102055 -55.13658773 76.86568998 -50.125 58.5625 C-49.61577999 56.71545513 -49.10413705 54.86907619 -48.58984375 53.0234375 C-48.25714478 51.80986572 -48.25714478 51.80986572 -47.91772461 50.57177734 C-47.1875 48.1875 -47.1875 48.1875 -46.10766602 45.59228516 C-44.99369628 42.68100844 -45.04375506 40.27801624 -45.1875 37.1875 C-44.5275 37.1875 -43.8675 37.1875 -43.1875 37.1875 C-43.1875 36.5275 -43.1875 35.8675 -43.1875 35.1875 C-43.765 35.331875 -44.3425 35.47625 -44.9375 35.625 C-46.05125 35.9034375 -46.05125 35.9034375 -47.1875 36.1875 C-47.826875 36.39375 -48.46625 36.6 -49.125 36.8125 C-51.69949874 37.28059068 -53.66931657 36.81704586 -56.1875 36.1875 C-55.2397377 26.5640674 -50.42847744 17.18942836 -43.1875 10.67578125 C-29.63667847 0.59206445 -16.2313355 -0.24713036 0 0 Z " fill="#0373B2" transform="translate(415.1875,102.8125)"/>
<path d="M0 0 C1.7324102 0.01507854 3.46483314 0.02876132 5.19726562 0.04101562 C9.40266346 0.07376014 13.60743793 0.12536564 17.8125 0.1875 C12.60344638 10.68072578 7.28207526 21.10040386 1.77539062 31.44140625 C1.27330078 32.39402344 0.77121094 33.34664062 0.25390625 34.328125 C-0.19267334 35.16891602 -0.63925293 36.00970703 -1.09936523 36.87597656 C-2.09487601 38.99073897 -2.72006428 40.9051786 -3.1875 43.1875 C-0.5475 43.5175 2.0925 43.8475 4.8125 44.1875 C4.36284322 50.53979422 2.77230426 54.99811945 -0.25 60.5625 C-3.03328788 65.14559503 -3.03328788 65.14559503 -4.1875 70.1875 C-3.5275 70.1875 -2.8675 70.1875 -2.1875 70.1875 C-1.8575 69.1975 -1.5275 68.2075 -1.1875 67.1875 C-0.8575 67.8475 -0.5275 68.5075 -0.1875 69.1875 C-35.17803223 122.41680425 -35.17803223 122.41680425 -54.90240479 128.73699951 C-58.05717714 129.35895455 -61.09221254 129.33150191 -64.30761719 129.34863281 C-65.01711517 129.35359772 -65.72661316 129.35856262 -66.45761108 129.36367798 C-68.79987569 129.37825645 -71.14207252 129.38509506 -73.484375 129.390625 C-75.11859131 129.39638085 -76.75280762 129.40213853 -78.38702393 129.40789795 C-81.81335768 129.41839626 -85.23966806 129.42424629 -88.66601562 129.42773438 C-93.04164448 129.43321076 -97.41696085 129.45722526 -101.79249191 129.48570633 C-105.16925946 129.50439607 -108.54595276 129.50954171 -111.92276764 129.51107025 C-113.5350032 129.514084 -115.14723785 129.52206908 -116.7594223 129.53525543 C-132.27992424 129.65311961 -132.27992424 129.65311961 -139.1875 126.1875 C-140.1775 125.6925 -141.1675 125.1975 -142.1875 124.6875 C-154.34380715 114.55724404 -160.1619453 98.01187003 -164.1875 83.1875 C-164.4453125 82.25969727 -164.703125 81.33189453 -164.96875 80.37597656 C-168.22133043 68.66886509 -171.33194975 56.97198805 -173.83105469 45.07983398 C-175.09322981 39.23088134 -176.90038875 33.71063035 -179.1875 28.1875 C-184.91912973 34.31298494 -190.5742385 40.38571278 -195.5546875 47.15234375 C-197.1875 49.1875 -197.1875 49.1875 -199.61328125 51.140625 C-203.56124929 55.8134855 -204.78704668 61.19806134 -206.5 67 C-206.85900391 68.16982422 -207.21800781 69.33964844 -207.58789062 70.54492188 C-208.4685712 73.42181176 -209.33449984 76.30230566 -210.1875 79.1875 C-210.331875 78.589375 -210.47625 77.99125 -210.625 77.375 C-211.0747439 75.62599596 -211.61642341 73.90072977 -212.1875 72.1875 C-212.1875 66.6576358 -209.77233468 63.44417277 -206.8515625 58.859375 C-205.07477028 56.23782046 -205.07477028 56.23782046 -204.1875 53.1875 C-205.79245567 53.30192461 -207.39648119 53.42944694 -209 53.5625 C-210.33998047 53.66691406 -210.33998047 53.66691406 -211.70703125 53.7734375 C-214.43148499 54.05395036 -214.43148499 54.05395036 -217.1875 56.1875 C-212.97905588 46.80804208 -204.93763384 38.70879246 -198 31.25 C-197.43055664 30.63600342 -196.86111328 30.02200684 -196.27441406 29.3894043 C-188.30630979 20.95346701 -188.30630979 20.95346701 -184.1875 18.1875 C-183.1975 18.1875 -182.2075 18.1875 -181.1875 18.1875 C-180.5275 20.4975 -179.8675 22.8075 -179.1875 25.1875 C-178.56101563 24.89875 -177.93453125 24.61 -177.2890625 24.3125 C-176.47179687 23.94125 -175.65453125 23.57 -174.8125 23.1875 C-174.00039062 22.81625 -173.18828125 22.445 -172.3515625 22.0625 C-170.1875 21.1875 -170.1875 21.1875 -168.1875 21.1875 C-167.6925 23.1675 -167.6925 23.1675 -167.1875 25.1875 C-166.5275 25.1875 -165.8675 25.1875 -165.1875 25.1875 C-163.95565622 27.62367741 -162.72701457 30.06139116 -161.5 32.5 C-161.16033203 33.17095703 -160.82066406 33.84191406 -160.47070312 34.53320312 C-154.0389478 47.33660391 -148.92646807 60.51173443 -143.92504883 73.92211914 C-133.72351373 101.76186386 -133.72351373 101.76186386 -114.65625 123.84765625 C-114.1715625 124.28980469 -113.686875 124.73195313 -113.1875 125.1875 C-113.1875 125.8475 -113.1875 126.5075 -113.1875 127.1875 C-98.0075 127.5175 -82.8275 127.8475 -67.1875 128.1875 C-69.6625 125.7125 -69.6625 125.7125 -72.1875 123.1875 C-73 120.375 -73 120.375 -73.1875 118.1875 C-73.8475 118.1875 -74.5075 118.1875 -75.1875 118.1875 C-80.24199451 107.8302992 -80.24199451 107.8302992 -79.1875 104.1875 C-77.67064001 102.41625977 -76.02881463 100.85698566 -74.3203125 99.26953125 C-70.21198106 95.25901722 -66.74998558 90.67961229 -63.1875 86.1875 C-62.60484375 85.47207031 -62.0221875 84.75664062 -61.421875 84.01953125 C-55.35318419 76.34171788 -52.58466242 67.79218709 -50.0625 58.4375 C-48.63929816 53.2336902 -47.19553147 48.19810682 -45.1875 43.1875 C-45.01992243 39.97879767 -45.01992243 39.97879767 -45.1875 37.1875 C-44.5275 37.1875 -43.8675 37.1875 -43.1875 37.1875 C-43.1875 36.5275 -43.1875 35.8675 -43.1875 35.1875 C-43.765 35.331875 -44.3425 35.47625 -44.9375 35.625 C-46.05125 35.9034375 -46.05125 35.9034375 -47.1875 36.1875 C-47.826875 36.39375 -48.46625 36.6 -49.125 36.8125 C-51.69949874 37.28059068 -53.66931657 36.81704586 -56.1875 36.1875 C-55.2397377 26.5640674 -50.42847744 17.18942836 -43.1875 10.67578125 C-29.63667847 0.59206445 -16.2313355 -0.24713036 0 0 Z " fill="#0482C1" transform="translate(415.1875,102.8125)"/>
<path d="M0 0 C0.66 2.31 1.32 4.62 2 7 C2.62648437 6.71125 3.25296875 6.4225 3.8984375 6.125 C4.71570313 5.75375 5.53296875 5.3825 6.375 5 C7.18710938 4.62875 7.99921875 4.2575 8.8359375 3.875 C11 3 11 3 13 3 C13.495 4.98 13.495 4.98 14 7 C14.66 7 15.32 7 16 7 C17.23184378 9.43617741 18.46048543 11.87389116 19.6875 14.3125 C20.02716797 14.98345703 20.36683594 15.65441406 20.71679688 16.34570312 C27.1485522 29.14910391 32.26103193 42.32423443 37.26245117 55.73461914 C47.46398627 83.57436386 47.46398627 83.57436386 66.53125 105.66015625 C67.0159375 106.10230469 67.500625 106.54445313 68 107 C68 107.66 68 108.32 68 109 C60.60239452 111.46586849 50.537374 111.16862721 43.02734375 109.234375 C30.43020914 102.92469911 24.50267367 87.39625087 19.85546875 74.9296875 C19.0303522 72.35251495 18.27656065 69.76834334 17.57763672 67.15429688 C16.85170198 64.44692236 16.09816621 61.74753884 15.34765625 59.046875 C12.40873662 48.37933579 9.6321138 37.72125109 7.35644531 26.89233398 C6.09427019 21.04338134 4.28711125 15.52313035 2 10 C-3.73162973 16.12548494 -9.3867385 22.19821278 -14.3671875 28.96484375 C-16 31 -16 31 -18.42578125 32.953125 C-22.37374929 37.6259855 -23.59954668 43.01056134 -25.3125 48.8125 C-25.67150391 49.98232422 -26.03050781 51.15214844 -26.40039062 52.35742188 C-27.2810712 55.23431176 -28.14699984 58.11480566 -29 61 C-29.2165625 60.1028125 -29.2165625 60.1028125 -29.4375 59.1875 C-29.8872439 57.43849596 -30.42892341 55.71322977 -31 54 C-31 48.4701358 -28.58483468 45.25667277 -25.6640625 40.671875 C-23.88727028 38.05032046 -23.88727028 38.05032046 -23 35 C-24.60495567 35.11442461 -26.20898119 35.24194694 -27.8125 35.375 C-29.15248047 35.47941406 -29.15248047 35.47941406 -30.51953125 35.5859375 C-33.24398499 35.86645036 -33.24398499 35.86645036 -36 38 C-31.79155588 28.62054208 -23.75013384 20.52129246 -16.8125 13.0625 C-16.24305664 12.44850342 -15.67361328 11.83450684 -15.08691406 11.2019043 C-4.50623542 0 -4.50623542 0 0 0 Z " fill="#059DD8" transform="translate(234,121)"/>
<path d="M0 0 C11.62349622 6.70497087 18.29861961 18.9624319 22.95703125 31.12890625 C22.95703125 32.11890625 22.95703125 33.10890625 22.95703125 34.12890625 C23.94703125 34.45890625 24.93703125 34.78890625 25.95703125 35.12890625 C26.61703125 36.11890625 27.27703125 37.10890625 27.95703125 38.12890625 C30.26710072 38.82512573 30.26710072 38.82512573 32.95703125 39.12890625 C34.95756139 39.459043 36.95763156 39.79199083 38.95703125 40.12890625 C43.53456754 55.57809124 47.12380926 71.2593724 50.75177002 86.9519043 C51.60812396 90.66385251 51.60812396 90.66385251 52.58886719 94.34423828 C53.20538644 97.3328031 52.47115161 100.15843307 51.95703125 103.12890625 C50.96703125 103.12890625 49.97703125 103.12890625 48.95703125 103.12890625 C48.46203125 104.61390625 48.46203125 104.61390625 47.95703125 106.12890625 C45.08203125 108.87890625 45.08203125 108.87890625 41.95703125 111.12890625 C37.69756168 109.70908306 36.62789794 106.62587399 34.58203125 102.87890625 C33.98322144 101.79778564 33.98322144 101.79778564 33.37231445 100.69482422 C30.50709262 95.40957671 28.14122312 90.05686347 26.125 84.38671875 C25.17139705 81.72683629 24.14415109 79.13647887 23.06860352 76.52539062 C21.09135152 71.59516749 19.49234994 66.62294222 18.00390625 61.52734375 C17.46153321 59.71857126 16.91854451 57.9099833 16.375 56.1015625 C15.54176374 53.31321951 14.71287241 50.52385332 13.89501953 47.73095703 C6.87725523 23.75600854 6.87725523 23.75600854 -8.04296875 4.12890625 C-8.70296875 3.79890625 -9.36296875 3.46890625 -10.04296875 3.12890625 C-9.23046875 1.19140625 -9.23046875 1.19140625 -8.04296875 -0.87109375 C-4.57282061 -2.0278098 -3.23674909 -1.51956852 0 0 Z " fill="#0699D5" transform="translate(281.04296875,107.87109375)"/>
<path d="M0 0 C1.65322266 0.01740234 1.65322266 0.01740234 3.33984375 0.03515625 C4.44457031 0.04417969 5.54929688 0.05320312 6.6875 0.0625 C7.54214844 0.07410156 8.39679688 0.08570313 9.27734375 0.09765625 C9.57125 1.01417969 9.57125 1.01417969 9.87109375 1.94921875 C12.55143579 10.15198964 15.48806779 18.25262739 18.45898438 26.35400391 C19.40385769 28.93328959 20.34197175 31.51491267 21.27734375 34.09765625 C21.68726563 35.22429687 22.0971875 36.3509375 22.51953125 37.51171875 C23.27734375 40.09765625 23.27734375 40.09765625 23.27734375 44.09765625 C19.97734375 44.09765625 16.67734375 44.09765625 13.27734375 44.09765625 C11.79234375 39.14765625 11.79234375 39.14765625 10.27734375 34.09765625 C4.99734375 34.09765625 -0.28265625 34.09765625 -5.72265625 34.09765625 C-6.38265625 37.39765625 -7.04265625 40.69765625 -7.72265625 44.09765625 C-11.35265625 44.09765625 -14.98265625 44.09765625 -18.72265625 44.09765625 C-16.86343627 36.44204459 -14.32782595 29.26780607 -11.42504883 21.96362305 C-9.01662529 15.90011519 -6.80075355 9.79030176 -4.66796875 3.625 C-3.35713431 0.12041371 -3.35713431 0.12041371 0 0 Z " fill="#070808" transform="translate(179.72265625,279.90234375)"/>
<path d="M0 0 C22 0 22 0 29 4 C32.19945172 7.6122842 32.52267104 11.05215348 32.3515625 15.71875 C31.60681333 20.55134462 29.44568211 23.91573841 25.5 26.875 C21.65839755 28.6037211 18.45545413 29.12434491 14.25 29.0625 C12.14625 29.0315625 12.14625 29.0315625 10 29 C10 33.95 10 38.9 10 44 C6.7 44 3.4 44 0 44 C0 29.48 0 14.96 0 0 Z " fill="#080909" transform="translate(244,280)"/>
<path d="M0 0 C1.44444841 0.00560615 2.88890258 0.00987142 4.33335876 0.01286316 C8.10635563 0.02423193 11.87899739 0.05362862 15.65185547 0.0869751 C19.51329751 0.11784952 23.37479781 0.13140534 27.23632812 0.14648438 C34.79182728 0.17850753 42.34703546 0.22960514 49.90234375 0.29296875 C49.90234375 0.62296875 49.90234375 0.95296875 49.90234375 1.29296875 C48.61263672 1.31423828 48.61263672 1.31423828 47.296875 1.3359375 C35.82026298 1.79900691 25.88501528 4.55530218 16.5859375 11.47265625 C14.90234375 12.29296875 14.90234375 12.29296875 12.890625 12.10546875 C10.64059045 11.18600473 9.38697112 10.11049351 7.65234375 8.41796875 C2.36234076 3.73575334 -3.506124 1.54682442 -10.61328125 1.81640625 C-15.94480449 2.83911983 -20.4819108 5.53591274 -25.09765625 8.29296875 C-25.88269531 8.75316406 -26.66773438 9.21335937 -27.4765625 9.6875 C-46.07490508 22.29710973 -57.02767685 51.68759767 -66.78515625 70.98046875 C-67.78793155 72.95271804 -68.79118495 74.92472431 -69.79492188 76.89648438 C-74.93741322 87.00786076 -80.04408589 97.13684878 -85.09765625 107.29296875 C-85.75765625 106.96296875 -86.41765625 106.63296875 -87.09765625 106.29296875 C-86.80415283 105.74511719 -86.51064941 105.19726562 -86.20825195 104.6328125 C-84.9969129 102.08071898 -84.16030298 99.55506785 -83.328125 96.85546875 C-82.99619141 95.79457031 -82.66425781 94.73367187 -82.32226562 93.640625 C-81.64071886 91.44067931 -80.96097627 89.24017372 -80.28320312 87.0390625 C-76.77133631 75.83613995 -72.1323733 65.22136371 -67.28515625 54.54296875 C-66.87845703 53.64320313 -66.47175781 52.7434375 -66.05273438 51.81640625 C-65.0692699 49.64121424 -64.08424172 47.46674649 -63.09765625 45.29296875 C-64.08765625 45.95296875 -65.07765625 46.61296875 -66.09765625 47.29296875 C-62.51058068 36.98247406 -53.4487448 28.10847625 -46.09765625 20.29296875 C-45.48664063 19.60589844 -44.875625 18.91882813 -44.24609375 18.2109375 C-40.29936106 13.95350458 -35.99133029 10.65239953 -31.16015625 7.48046875 C-30.59917236 7.10720459 -30.03818848 6.73394043 -29.46020508 6.34936523 C-19.97525482 0.35478962 -11.05173782 -0.12696596 0 0 Z " fill="#069DD6" transform="translate(223.09765625,104.70703125)"/>
<path d="M0 0 C0.495 0.99 0.495 0.99 1 2 C2.89533342 2.46523063 2.89533342 2.46523063 5.0625 2.625 C6.361875 2.74875 7.66125 2.8725 9 3 C8.55034322 9.35229422 6.95980426 13.81061945 3.9375 19.375 C1.15421212 23.95809503 1.15421212 23.95809503 0 29 C0.66 29 1.32 29 2 29 C2.495 27.515 2.495 27.515 3 26 C3.495 26.99 3.495 26.99 4 28 C-19.01662013 63.01400516 -19.01662013 63.01400516 -30.625 75.25 C-31.13973877 75.81251465 -31.65447754 76.3750293 -32.18481445 76.95458984 C-36.25218557 81.07284336 -39.23705029 81.77498244 -45 82 C-39.62522852 75.4606947 -39.62522852 75.4606947 -36.625 73.25 C-36.08875 72.8375 -35.5525 72.425 -35 72 C-35 71.01 -35 70.02 -35 69 C-33.96875 67.30078125 -33.96875 67.30078125 -32.5 65.3125 C-24.18136644 53.2358014 -18.57562924 39.03996338 -12.51171875 25.734375 C-8.54416543 17.0506734 -4.30829061 8.51816848 0 0 Z M-46 82 C-45.67 82.66 -45.34 83.32 -45 84 C-45.66 83.67 -46.32 83.34 -47 83 C-46.67 82.67 -46.34 82.34 -46 82 Z " fill="#0A95CF" transform="translate(411,144)"/>
<path d="M0 0 C0.77601563 0.00064453 1.55203125 0.00128906 2.3515625 0.00195312 C8.09362599 0.046813 8.09362599 0.046813 10.375 1.1875 C10.375 4.1575 10.375 7.1275 10.375 10.1875 C9.385 9.8575 8.395 9.5275 7.375 9.1875 C5.14681559 9.11812938 2.91665476 9.10292916 0.6875 9.125 C-0.49199219 9.13402344 -1.67148438 9.14304687 -2.88671875 9.15234375 C-3.79035156 9.16394531 -4.69398438 9.17554688 -5.625 9.1875 C-5.82837765 11.60385683 -5.82837765 11.60385683 -5.625 14.1875 C-2.98142729 16.3565853 -0.35801662 17.80977205 2.671875 19.37109375 C10.73710146 23.6013841 10.73710146 23.6013841 12.375 28.1875 C12.94296579 33.39385305 12.26368756 36.8046637 9.375 41.1875 C3.68264825 45.53166318 -2.71549429 45.6794019 -9.625 45.1875 C-12.36161926 44.66645494 -14.94491473 43.96716117 -17.625 43.1875 C-17.625 39.8875 -17.625 36.5875 -17.625 33.1875 C-16.861875 33.496875 -16.09875 33.80625 -15.3125 34.125 C-10.34131422 36.09035252 -6.92516027 36.35575906 -1.625 36.1875 C-0.635 35.6925 -0.635 35.6925 0.375 35.1875 C0.375 33.5375 0.375 31.8875 0.375 30.1875 C-0.50542969 29.75179688 -1.38585937 29.31609375 -2.29296875 28.8671875 C-14.77382122 22.46746071 -14.77382122 22.46746071 -17.625 17.1875 C-18.44459966 13.30666059 -18.54904766 9.90098996 -16.6328125 6.34765625 C-11.77258049 0.17425596 -7.32688021 -0.11678752 0 0 Z " fill="#0A0B0C" transform="translate(224.625,279.8125)"/>
<path d="M0 0 C0.99 0.33 1.98 0.66 3 1 C3 1.66 3 2.32 3 3 C2.34 3 1.68 3 1 3 C1.2475 3.763125 1.495 4.52625 1.75 5.3125 C2.05766741 9.85059431 0.82959752 12.63857927 -0.83203125 16.8125 C-2.11540313 20.31494634 -2.99499711 23.81352187 -3.875 27.4375 C-7.0821093 39.65918678 -12.6591101 48.58406207 -21 58 C-21.99 57.67 -22.98 57.34 -24 57 C-24 57.66 -24 58.32 -24 59 C-24.66 59 -25.32 59 -26 59 C-26 59.66 -26 60.32 -26 61 C-26.99 60.67 -27.98 60.34 -29 60 C-28.69707031 59.13761719 -28.39414062 58.27523437 -28.08203125 57.38671875 C-25.66823704 50.35329378 -23.50668708 43.33562401 -21.6875 36.125 C-18.68118425 24.24669029 -14.82346673 12.63570846 -11 1 C-9.89140625 1.185625 -8.7828125 1.37125 -7.640625 1.5625 C-3.88629479 2.01366415 -3.10029652 1.77159801 0 0 Z " fill="#8FCBED" transform="translate(369,137)"/>
<path d="M0 0 C1.98 0 3.96 0 6 0 C6 14.52 6 29.04 6 44 C-1 44 -1 44 -3.16821289 41.84790039 C-3.7636792 40.85781982 -4.35914551 39.86773926 -4.97265625 38.84765625 C-5.64490234 37.76033203 -6.31714844 36.67300781 -7.00976562 35.55273438 C-7.69480182 34.38978873 -8.37904247 33.22637412 -9.0625 32.0625 C-10.42787397 29.82390673 -11.79375121 27.58562032 -13.16015625 25.34765625 C-13.75449463 24.34742432 -14.34883301 23.34719238 -14.96118164 22.31665039 C-17.52863282 18.14004588 -20.28050735 14.07923897 -23 10 C-23.33 21.22 -23.66 32.44 -24 44 C-25.65 44 -27.3 44 -29 44 C-29 29.81 -29 15.62 -29 1 C-22 1 -22 1 -20.13891602 2.62963867 C-19.68186279 3.3847876 -19.22480957 4.13993652 -18.75390625 4.91796875 C-18.22603516 5.76166016 -17.69816406 6.60535156 -17.15429688 7.47460938 C-16.62900391 8.36986328 -16.10371094 9.26511719 -15.5625 10.1875 C-15.04107422 11.03248047 -14.51964844 11.87746094 -13.98242188 12.74804688 C-12.29921665 15.48504928 -10.65034775 18.2430607 -9 21 C-6.36 25.29 -3.72 29.58 -1 34 C-0.67 22.78 -0.34 11.56 0 0 Z " fill="#161819" transform="translate(326,280)"/>
<path d="M0 0 C0.99 2.97 1.98 5.94 3 9 C2.030625 9.928125 1.06125 10.85625 0.0625 11.8125 C-6.57765523 18.45265523 -12.34642479 25.91381238 -17.80859375 33.5390625 C-19 35 -19 35 -21 36 C-22.03724517 38.50779562 -22.03724517 38.50779562 -22.9453125 41.56640625 C-23.29980469 42.69111328 -23.65429688 43.81582031 -24.01953125 44.97460938 C-24.38433594 46.15861328 -24.74914062 47.34261719 -25.125 48.5625 C-25.49753906 49.75037109 -25.87007812 50.93824219 -26.25390625 52.16210938 C-27.17609408 55.10601669 -28.09111433 58.05196395 -29 61 C-29.2165625 60.1028125 -29.2165625 60.1028125 -29.4375 59.1875 C-29.8872439 57.43849596 -30.42892341 55.71322977 -31 54 C-31 48.4701358 -28.58483468 45.25667277 -25.6640625 40.671875 C-23.88727028 38.05032046 -23.88727028 38.05032046 -23 35 C-24.60495567 35.11442461 -26.20898119 35.24194694 -27.8125 35.375 C-29.15248047 35.47941406 -29.15248047 35.47941406 -30.51953125 35.5859375 C-33.24398499 35.86645036 -33.24398499 35.86645036 -36 38 C-31.79155588 28.62054208 -23.75013384 20.52129246 -16.8125 13.0625 C-16.24305664 12.44850342 -15.67361328 11.83450684 -15.08691406 11.2019043 C-4.50623542 0 -4.50623542 0 0 0 Z " fill="#86D0F1" transform="translate(234,121)"/>
<path d="M0 0 C0 0.66 0 1.32 0 2 C0.7425 1.896875 1.485 1.79375 2.25 1.6875 C5 2 5 2 7.125 4.375 C7.74375 5.24125 8.3625 6.1075 9 7 C9.99 7.66 10.98 8.32 12 9 C12 9.99 12 10.98 12 12 C12.66 12 13.32 12 14 12 C14 12.66 14 13.32 14 14 C14.99 14.33 15.98 14.66 17 15 C18.30083566 17.17889973 19.42079845 19.27770129 20.5 21.5625 C20.80679688 22.19857178 21.11359375 22.83464355 21.4296875 23.48999023 C27.78377581 36.81083402 27.78377581 36.81083402 26 42 C24.51793505 41.745504 23.03931385 41.47088238 21.5625 41.1875 C20.73878906 41.03667969 19.91507812 40.88585937 19.06640625 40.73046875 C18.38449219 40.48941406 17.70257813 40.24835938 17 40 C16.67 39.01 16.34 38.02 16 37 C15.38769531 36.7628125 14.77539062 36.525625 14.14453125 36.28125 C10.8067487 34.28709212 10.03241337 30.97885315 8.6875 27.5 C4.9016228 18.33235906 0.51599953 10.46696225 -7.421875 4.25390625 C-9.07539014 2.94009843 -10.53230259 1.51632594 -12 0 C-7.44729118 -2.48329572 -4.775353 -1.68541871 0 0 Z " fill="#A9DCF6" transform="translate(292,107)"/>
<path d="M0 0 C7.26 0 14.52 0 22 0 C22 1.65 22 3.3 22 5 C16.39 5 10.78 5 5 5 C5 9.95 5 14.9 5 20 C10.28 20 15.56 20 21 20 C21 21.32 21 22.64 21 24 C15.72 24 10.44 24 5 24 C5 28.95 5 33.9 5 39 C10.94 39 16.88 39 23 39 C23 40.65 23 42.3 23 44 C15.41 44 7.82 44 0 44 C0 29.48 0 14.96 0 0 Z " fill="#0D0F0F" transform="translate(343,280)"/>
<path d="M0 0 C0.99 0.495 0.99 0.495 2 1 C2 2.32 2 3.64 2 5 C5.3 5 8.6 5 12 5 C13.46387966 9.66358501 14.92342584 14.32847873 16.37597656 18.99560547 C16.89259877 20.65502188 17.41092034 22.31390914 17.9296875 23.97265625 C22.44595012 38.66214963 22.44595012 38.66214963 21 43 C14.375 44 14.375 44 11 44 C7.87141803 33.93593321 5.14549549 23.81200246 2.6875 13.5625 C2.42114746 12.45463135 2.15479492 11.3467627 1.88037109 10.20532227 C0 2.26837835 0 2.26837835 0 0 Z " fill="#41BFEB" transform="translate(242,149)"/>
<path d="M0 0 C1.584478 4.00719598 0.38384172 7.51784306 -0.6875 11.5 C-0.87175537 12.20761475 -1.05601074 12.91522949 -1.24584961 13.64428711 C-3.55452867 22.3423066 -6.34262337 30.77090258 -10 39 C-11.35114374 42.32627022 -12.6770576 45.6624245 -14 49 C-15.04449911 45.86650268 -14.93423645 45.01031744 -14 42 C-17.96 41.505 -17.96 41.505 -22 41 C-21.45566717 35.97590941 -19.74940188 32.03751801 -17.40234375 27.6328125 C-16.87176109 26.61343094 -16.87176109 26.61343094 -16.33045959 25.57345581 C-15.20723191 23.41980586 -14.07259612 21.27241408 -12.9375 19.125 C-12.17046051 17.65925343 -11.40417634 16.19311134 -10.63867188 14.7265625 C-8.76782398 11.14640552 -6.88672627 7.57181282 -5 4 C-4.34 4 -3.68 4 -3 4 C-1.36323743 2.0399719 -1.36323743 2.0399719 0 0 Z " fill="#83C2E8" transform="translate(434,105)"/>
<path d="M0 0 C9.9 0 19.8 0 30 0 C30 1.65 30 3.3 30 5 C26.04 5 22.08 5 18 5 C18 17.87 18 30.74 18 44 C16.35 44 14.7 44 13 44 C13 31.13 13 18.26 13 5 C8.71 5 4.42 5 0 5 C0 3.35 0 1.7 0 0 Z " fill="#0F1010" transform="translate(370,280)"/>
<path d="M0 0 C1.80947732 3.61895463 -0.44576252 7.45569621 -1.625 11.13671875 C-3.06856455 15.31506016 -4.74439235 19.38166879 -6.5 23.4375 C-6.78423828 24.0989502 -7.06847656 24.76040039 -7.36132812 25.44189453 C-9.21151094 29.60480586 -11.25149107 33.35597279 -14 37 C-14.66 37 -15.32 37 -16 37 C-21.05449451 26.6427992 -21.05449451 26.6427992 -20 23 C-18.48580176 21.23186789 -16.84809277 19.6762811 -15.140625 18.09375 C-11.03630072 14.07930143 -7.57629611 9.48193857 -4 5 C-3.25105469 4.06414062 -2.50210937 3.12828125 -1.73046875 2.1640625 C-1.15941406 1.44992188 -0.58835937 0.73578125 0 0 Z " fill="#0898D6" transform="translate(356,184)"/>
<path d="M0 0 C21.45 0 42.9 0 65 0 C65 0.33 65 0.66 65 1 C63.71029297 1.02126953 63.71029297 1.02126953 62.39453125 1.04296875 C50.91791923 1.50603816 40.98267153 4.26233343 31.68359375 11.1796875 C30 12 30 12 27.98828125 11.8125 C25.7382467 10.89303598 24.48462737 9.81752476 22.75 8.125 C16.00074198 2.16220213 8.77086314 1.4675644 0 1 C0 0.67 0 0.34 0 0 Z " fill="#8DCAE9" transform="translate(208,105)"/>
<path d="M0 0 C1.17187888 3.46775648 1.06928225 3.85669686 -0.65625 7.42578125 C-1.03136719 8.12268066 -1.40648437 8.81958008 -1.79296875 9.53759766 C-4.24240976 14.53457621 -5.78301272 19.90468759 -7.5 25.1875 C-7.87769531 26.33025391 -8.25539062 27.47300781 -8.64453125 28.65039062 C-11.1953456 36.40363905 -13.62629182 44.19085583 -16 52 C-16.2165625 51.1028125 -16.2165625 51.1028125 -16.4375 50.1875 C-16.8872439 48.43849596 -17.42892341 46.71322977 -18 45 C-18 39.4701358 -15.58483468 36.25667277 -12.6640625 31.671875 C-10.88727028 29.05032046 -10.88727028 29.05032046 -10 26 C-11.60495567 26.11442461 -13.20898119 26.24194694 -14.8125 26.375 C-15.70582031 26.44460937 -16.59914062 26.51421875 -17.51953125 26.5859375 C-20.24398499 26.86645036 -20.24398499 26.86645036 -23 29 C-21.3521005 25.29445302 -19.02887403 22.18950689 -16.5625 19 C-16.13018066 18.43837158 -15.69786133 17.87674316 -15.25244141 17.2980957 C-10.50441609 11.22344121 -5.30019238 5.59240831 0 0 Z " fill="#1CAEDC" transform="translate(221,130)"/>
<path d="M0 0 C1.49097694 3.20297245 2.96561739 6.41321366 4.4375 9.625 C4.85837891 10.52863281 5.27925781 11.43226563 5.71289062 12.36328125 C7.78511505 16.90559719 9.53988339 20.96381454 10 26 C7.03 26 4.06 26 1 26 C-0.23281844 22.59167212 -1.43186884 19.17240254 -2.625 15.75 C-2.975625 14.78191406 -3.32625 13.81382812 -3.6875 12.81640625 C-4.00976562 11.88183594 -4.33203125 10.94726562 -4.6640625 9.984375 C-5.11966553 8.69611816 -5.11966553 8.69611816 -5.58447266 7.38183594 C-6.08832997 4.49368556 -5.64618143 3.38513399 -4 1 C-2 0 -2 0 0 0 Z " fill="#0CAADF" transform="translate(243,128)"/>
<path d="M0 0 C0.495 1.485 0.495 1.485 1 3 C0.34 3.99 -0.32 4.98 -1 6 C-0.34 6.33 0.32 6.66 1 7 C0.443125 7.825 -0.11375 8.65 -0.6875 9.5 C-13.25148072 28.38896991 -21.56218545 48.91205185 -27.89453125 70.65234375 C-28.98874975 73.96593122 -30.3611578 76.92423599 -32 80 C-32.66 79.67 -33.32 79.34 -34 79 C-33.70649658 78.45214844 -33.41299316 77.90429688 -33.1105957 77.33984375 C-31.89925665 74.78775023 -31.06264673 72.2620991 -30.23046875 69.5625 C-29.89853516 68.50160156 -29.56660156 67.44070312 -29.22460938 66.34765625 C-28.54306261 64.14771056 -27.86332002 61.94720497 -27.18554688 59.74609375 C-23.67368006 48.5431712 -19.03471705 37.92839496 -14.1875 27.25 C-13.78080078 26.35023438 -13.37410156 25.45046875 -12.95507812 24.5234375 C-11.97161365 22.34824549 -10.98658547 20.17377774 -10 18 C-10.99 18.66 -11.98 19.32 -13 20 C-11.5273511 15.66208857 -9.28996816 12.48927693 -6.5 8.875 C-4.25337435 5.95001012 -2.04601541 3.06902312 0 0 Z " fill="#4DB6DF" transform="translate(170,132)"/>
<path d="M0 0 C7.21153846 -0.48076923 7.21153846 -0.48076923 10.5625 1.5625 C12 4 12 4 11.875 7.625 C11 11 11 11 9 13 C5.98173347 13.27240673 3.03629378 13.08675125 0 13 C0 8.71 0 4.42 0 0 Z " fill="#D7E8F3" transform="translate(254,288)"/>
<path d="M0 0 C1.17629657 3.47525916 0.81182496 5.87491481 0.00390625 9.421875 C-0.22490234 10.44667969 -0.45371094 11.47148437 -0.68945312 12.52734375 C-0.93630859 13.59082031 -1.18316406 14.65429688 -1.4375 15.75 C-1.68048828 16.82894531 -1.92347656 17.90789062 -2.17382812 19.01953125 C-2.77456295 21.68161107 -3.38355513 24.34152209 -4 27 C-7.3 27 -10.6 27 -14 27 C-9.50260575 17.90247914 -4.95550263 8.85983804 0 0 Z " fill="#0B9FDA" transform="translate(139,208)"/>
<path d="M0 0 C2 1 2 1 4 4 C6.31006947 4.69621948 6.31006947 4.69621948 9 5 C10.093125 5.185625 11.18625 5.37125 12.3125 5.5625 C13.199375 5.706875 14.08625 5.85125 15 6 C16.31626692 9.61973402 17 12.09567131 17 16 C16.34 16 15.68 16 15 16 C15 15.34 15 14.68 15 14 C11.37 14 7.74 14 4 14 C0 4.5 0 4.5 0 0 Z " fill="#35C1EC" transform="translate(305,142)"/>
<path d="M0 0 C2.95839355 -0.02689449 5.91654427 -0.04678741 8.875 -0.0625 C9.71675781 -0.07087891 10.55851563 -0.07925781 11.42578125 -0.08789062 C12.23144531 -0.09111328 13.03710938 -0.09433594 13.8671875 -0.09765625 C14.98262939 -0.10551147 14.98262939 -0.10551147 16.12060547 -0.11352539 C18 0 18 0 20 1 C19.67 2.98 19.34 4.96 19 7 C19.99 7 20.98 7 22 7 C21.67 7.99 21.34 8.98 21 10 C18.73828125 10.703125 18.73828125 10.703125 16 11 C14.04296875 9.671875 14.04296875 9.671875 12.1875 7.75 C8.3265153 4.06551745 5.08042948 2.54227324 0 1 C0 0.67 0 0.34 0 0 Z " fill="#75C2E8" transform="translate(219,106)"/>
<path d="M0 0 C1.64528614 3.12752591 2.91702499 6.3053057 4.125 9.625 C4.47820312 10.58664062 4.83140625 11.54828125 5.1953125 12.5390625 C6 15 6 15 6 17 C2.37 17 -1.26 17 -5 17 C-4.35083537 10.99522721 -2.14204997 5.599219 0 0 Z " fill="#CBDCE5" transform="translate(182,290)"/>
<path d="M0 0 C0.33 1.32 0.66 2.64 1 4 C4.96 4 8.92 4 13 4 C12.34 6.64 11.68 9.28 11 12 C10.67 11.34 10.34 10.68 10 10 C9.13375 10.2165625 9.13375 10.2165625 8.25 10.4375 C7.13625 10.7159375 7.13625 10.7159375 6 11 C5.360625 11.20625 4.72125 11.4125 4.0625 11.625 C1.48800126 12.09309068 -0.48181657 11.62954586 -3 11 C-2.53199289 6.94393835 -2.12046792 3.53411321 0 0 Z " fill="#27B2E3" transform="translate(362,128)"/>
<path d="M0 0 C1.14016134 3.42048402 0.91821488 3.84507003 -0.44140625 7 C-0.77503174 7.79583496 -1.10865723 8.59166992 -1.45239258 9.41162109 C-1.81872803 10.26578613 -2.18506348 11.11995117 -2.5625 12 C-5.81227579 19.80374261 -8.61412155 27.62352394 -11.00805664 35.73046875 C-12.30806865 40.07303173 -13.82984008 43.99061364 -16 48 C-16.66 47.67 -17.32 47.34 -18 47 C-17.70649658 46.45214844 -17.41299316 45.90429688 -17.1105957 45.33984375 C-15.89925665 42.78775023 -15.06264673 40.2620991 -14.23046875 37.5625 C-13.89853516 36.50160156 -13.56660156 35.44070312 -13.22460938 34.34765625 C-12.54306261 32.14771056 -11.86332002 29.94720497 -11.18554688 27.74609375 C-8.19016582 18.19077069 -4.68038663 8.86810098 0 0 Z " fill="#95C5E1" transform="translate(154,164)"/>
<path d="M0 0 C0.85010911 2.40505552 1.14566919 3.60055975 0.2578125 6.03515625 C-0.11601562 6.70417969 -0.48984375 7.37320313 -0.875 8.0625 C-2.1677445 10.41746463 -3.14326941 12.42980824 -4 15 C-6.375 16.25 -6.375 16.25 -9 17 C-9.99 16.67 -10.98 16.34 -12 16 C-10.57139081 11.50891248 -8.06922708 8.53830684 -4.875 5.1875 C-4.40707031 4.68541016 -3.93914062 4.18332031 -3.45703125 3.66601562 C-2.31098175 2.43810545 -1.15634689 1.21821785 0 0 Z " fill="#6FB8E0" transform="translate(221,130)"/>
<path d="M0 0 C0.33 0.99 0.66 1.98 1 3 C2.98 2.67 4.96 2.34 7 2 C6.34 4.97 5.68 7.94 5 11 C1.7 10.34 -1.6 9.68 -5 9 C-3.96846241 4.87384964 -2.71595986 3.1540179 0 0 Z " fill="#4CB2DF" transform="translate(209,143)"/>
<path d="M0 0 C1.37980254 4.13940763 0.22243429 6.14870812 -1.41015625 10.08203125 C-4.45243066 15.6657634 -8.76318996 20.29423008 -13 25 C-13.66 24.34 -14.32 23.68 -15 23 C-14.38511719 22.19175781 -13.77023437 21.38351563 -13.13671875 20.55078125 C-12.32018287 19.47145222 -11.50378389 18.39201962 -10.6875 17.3125 C-10.28337891 16.78205078 -9.87925781 16.25160156 -9.46289062 15.70507812 C-5.69657535 10.71394487 -2.740235 5.61095739 0 0 Z " fill="#C8DBF3" transform="translate(361,170)"/>
<path d="M0 0 C0.66 0 1.32 0 2 0 C1.34 1.32 0.68 2.64 0 4 C1.98 3.67 3.96 3.34 6 3 C2.30498943 7.28621227 -1.81134936 9.76135895 -7.453125 10.18359375 C-9.64433715 10.18703905 -11.81321906 10.13388455 -14 10 C-12.01565372 8.01565372 -10.6363263 7.27168106 -8.125 6.125 C-4.77599944 4.51117002 -2.54485532 2.74061342 0 0 Z M-2 5 C-2.33 5.66 -2.66 6.32 -3 7 C-2.34 7 -1.68 7 -1 7 C-1.33 6.34 -1.66 5.68 -2 5 Z " fill="#136BA1" transform="translate(367,221)"/>
<path d="M0 0 C-0.89460938 0.38929687 -1.78921875 0.77859375 -2.7109375 1.1796875 C-11.43904331 5.15460075 -17.5534264 9.75552043 -24 17 C-24.9923038 18.00763742 -25.98882787 19.01129836 -27 20 C-24.73205549 11.93619731 -17.96458045 6.59082997 -11.2109375 2.2265625 C-4.31602773 -1.59852879 -4.31602773 -1.59852879 0 0 Z " fill="#34ABD4" transform="translate(391,106)"/>
<path d="M0 0 C0.33 0.66 0.66 1.32 1 2 C-2.96 7.94 -2.96 7.94 -7 14 C-7.33 13.01 -7.66 12.02 -8 11 C-8.66 10.67 -9.32 10.34 -10 10 C-8.35 7.03 -6.7 4.06 -5 1 C-3.68 1.66 -2.36 2.32 -1 3 C-0.67 2.01 -0.34 1.02 0 0 Z " fill="#2AADD8" transform="translate(414,170)"/>
<path d="M0 0 C1.20362456 3.61087369 0.71115849 4.31834721 -0.6875 7.75 C-3.36204995 14.69264709 -5.17314679 21.79947752 -7 29 C-7.66 28.34 -8.32 27.68 -9 27 C-9 25.68 -9 24.36 -9 23 C-8.34 23 -7.68 23 -7 23 C-6.94392578 22.1646875 -6.94392578 22.1646875 -6.88671875 21.3125 C-6.40703321 15.74438551 -5.17827208 11.12731737 -3 6 C-2.62875 5.030625 -2.2575 4.06125 -1.875 3.0625 C-1 1 -1 1 0 0 Z " fill="#7CBEE0" transform="translate(370,143)"/>
<path d="M0 0 C-3.04781893 2.4122548 -6.20195852 4.28892115 -9.625 6.125 C-10.58664063 6.64320312 -11.54828125 7.16140625 -12.5390625 7.6953125 C-14.01780434 8.4792804 -15.50299416 9.25149708 -17 10 C-17 9.34 -17 8.68 -17 8 C-17.66 7.67 -18.32 7.34 -19 7 C-12.91904324 2.9563181 -7.57281958 -0.44545998 0 0 Z " fill="#1E95C5" transform="translate(210,106)"/>
<path d="M0 0 C0.99 0.495 0.99 0.495 2 1 C6.65275976 1.3052622 6.65275976 1.3052622 11 0 C12.21386936 3.64160808 11.6674695 4.33165469 10.0625 7.6875 C9.49208984 8.89986328 9.49208984 8.89986328 8.91015625 10.13671875 C8.60980469 10.75160156 8.30945313 11.36648437 8 12 C6.95550089 8.86650268 7.06576355 8.01031744 8 5 C5.36 4.67 2.72 4.34 0 4 C0 2.68 0 1.36 0 0 Z " fill="#50B6E4" transform="translate(412,142)"/>
<path d="M0 0 C1.90318884 2.85478326 2.4619099 4.41941308 3.125 7.6875 C3.29257812 8.49574219 3.46015625 9.30398437 3.6328125 10.13671875 C3.75398438 10.75160156 3.87515625 11.36648437 4 12 C3.2575 12.144375 2.515 12.28875 1.75 12.4375 C0.8425 12.623125 -0.065 12.80875 -1 13 C-1.721875 13.103125 -2.44375 13.20625 -3.1875 13.3125 C-5.20837047 13.86625333 -5.20837047 13.86625333 -6.25 16.0625 C-6.4975 16.701875 -6.745 17.34125 -7 18 C-7.33 15.36 -7.66 12.72 -8 10 C-7.01 10.33 -6.02 10.66 -5 11 C-3.00038436 11.03920815 -0.99950636 11.04443347 1 11 C0.67 7.37 0.34 3.74 0 0 Z " fill="#16ACE3" transform="translate(262,181)"/>
<path d="M0 0 C1.68550367 3.37100733 -0.31136964 6.72014632 -1.4375 10.125 C-1.68048828 10.87910156 -1.92347656 11.63320312 -2.17382812 12.41015625 C-2.77595819 14.27557879 -3.38713463 16.13807683 -4 18 C-6.51923866 7.9668582 -6.51923866 7.9668582 -4.1875 3.625 C-2 1 -2 1 0 0 Z " fill="#38B5DC" transform="translate(209,164)"/>
<path d="M0 0 C2 1 2 1 4 4 C6.31006947 4.69621948 6.31006947 4.69621948 9 5 C10.093125 5.185625 11.18625 5.37125 12.3125 5.5625 C13.199375 5.706875 14.08625 5.85125 15 6 C14.67 7.32 14.34 8.64 14 10 C14 9.34 14 8.68 14 8 C13.360625 8.185625 12.72125 8.37125 12.0625 8.5625 C11.381875 8.706875 10.70125 8.85125 10 9 C9.67 8.67 9.34 8.34 9 8 C6.66702567 7.95907063 4.33294775 7.95758277 2 8 C0.23537317 4.91190305 0 3.76687864 0 0 Z " fill="#59C5EF" transform="translate(305,142)"/>
<path d="M0 0 C0.33 1.32 0.66 2.64 1 4 C4.63 4 8.26 4 12 4 C12 4.66 12 5.32 12 6 C10.66666667 6.33333333 9.33333333 6.66666667 8 7 C7.360625 7.20625 6.72125 7.4125 6.0625 7.625 C3.48800126 8.09309068 1.51818343 7.62954586 -1 7 C-0.67 4.69 -0.34 2.38 0 0 Z " fill="#40B7E6" transform="translate(360,132)"/>
<path d="M0 0 C0.66 0.33 1.32 0.66 2 1 C-0.57610262 3.46600511 -3.16208149 5.92140252 -5.75 8.375 C-6.47960937 9.07367188 -7.20921875 9.77234375 -7.9609375 10.4921875 C-8.66992188 11.1625 -9.37890625 11.8328125 -10.109375 12.5234375 C-10.75874023 13.14138184 -11.40810547 13.75932617 -12.07714844 14.39599609 C-13.97030301 15.97522737 -15.75576057 17.00013457 -18 18 C-12.55006359 11.46007631 -6.94034209 4.9970463 0 0 Z " fill="#2DAFD4" transform="translate(189,114)"/>
<path d="M0 0 C0.33 0.66 0.66 1.32 1 2 C2.89533342 2.46523063 2.89533342 2.46523063 5.0625 2.625 C6.361875 2.74875 7.66125 2.8725 9 3 C8.67 4.32 8.34 5.64 8 7 C5.03 6.67 2.06 6.34 -1 6 C-0.67 4.02 -0.34 2.04 0 0 Z " fill="#1EA8DE" transform="translate(411,144)"/>
<path d="M0 0 C1.65 0.33 3.3 0.66 5 1 C5 2.65 5 4.3 5 6 C3.125 6.625 3.125 6.625 1 7 C0.34 6.34 -0.32 5.68 -1 5 C-0.625 2.375 -0.625 2.375 0 0 Z " fill="#17191A" transform="translate(282,318)"/>
<path d="M0 0 C0.66 0 1.32 0 2 0 C0.63629701 2.99220268 -0.94908083 5.29026529 -3.125 7.75 C-3.93324219 8.67039063 -3.93324219 8.67039063 -4.7578125 9.609375 C-5.16773438 10.06828125 -5.57765625 10.5271875 -6 11 C-7.1171875 7.28125 -7.1171875 7.28125 -6.0625 4.75 C-5.5365625 3.88375 -5.5365625 3.88375 -5 3 C-4.01 3.33 -3.02 3.66 -2 4 C-2 3.34 -2 2.68 -2 2 C-1.34 2 -0.68 2 0 2 C0 1.34 0 0.68 0 0 Z " fill="#E1EAF8" transform="translate(345,194)"/>
<path d="M0 0 C-5.73230171 2.85288164 -10.59859065 4.53444296 -17 5 C-12.5 1 -12.5 1 -8 1 C-6.96875 0.649375 -5.9375 0.29875 -4.875 -0.0625 C-2 -1 -2 -1 0 0 Z " fill="#259ECD" transform="translate(178,229)"/>
<path d="M0 0 C1.23593891 3.70781672 0.5678132 4.67510253 -0.9375 8.1875 C-1.31777344 9.08855469 -1.69804687 9.98960937 -2.08984375 10.91796875 C-2.54037109 11.94857422 -2.54037109 11.94857422 -3 13 C-3.99 13 -4.98 13 -6 13 C-5.1905146 11.01959844 -4.37732831 9.04070923 -3.5625 7.0625 C-3.11003906 5.96035156 -2.65757812 4.85820312 -2.19140625 3.72265625 C-1 1 -1 1 0 0 Z " fill="#B3D1E7" transform="translate(361,170)"/>
<path d="M0 0 C4.95 0 9.9 0 15 0 C11 3 11 3 7.5 2.8125 C4 2 4 2 0 0 Z " fill="#87C3E8" transform="translate(219,106)"/>
<path d="M0 0 C0.33 0.66 0.66 1.32 1 2 C0.00390625 4.3828125 0.00390625 4.3828125 -1.4375 7.125 C-1.91058594 8.03507813 -2.38367188 8.94515625 -2.87109375 9.8828125 C-3.24363281 10.58148438 -3.61617187 11.28015625 -4 12 C-5.11889609 8.59825551 -4.9845447 7.95657797 -3.6875 4.3125 C-2 1 -2 1 0 0 Z " fill="#1195CD" transform="translate(148,188)"/>
<path d="M0 0 C0.33 0.99 0.66 1.98 1 3 C0.01 4.485 0.01 4.485 -1 6 C-1.33 6.99 -1.66 7.98 -2 9 C-4.5625 10.6875 -4.5625 10.6875 -7 12 C-5.44298069 7.32894208 -2.91552627 3.91294315 0 0 Z " fill="#5BC0E4" transform="translate(164,140)"/>
<path d="M0 0 C0.66 0.33 1.32 0.66 2 1 C0.02 4.63 -1.96 8.26 -4 12 C-4.66 11.34 -5.32 10.68 -6 10 C-5.18957164 8.51969728 -4.37659652 7.04078858 -3.5625 5.5625 C-2.88380859 4.32693359 -2.88380859 4.32693359 -2.19140625 3.06640625 C-1 1 -1 1 0 0 Z " fill="#C8DDF1" transform="translate(135,213)"/>
<path d="M0 0 C3.3 0.33 6.6 0.66 10 1 C9.67 2.32 9.34 3.64 9 5 C4.545 4.01 4.545 4.01 0 3 C0 2.01 0 1.02 0 0 Z " fill="#3BB1DF" transform="translate(204,149)"/>
<path d="M0 0 C0.66 0.33 1.32 0.66 2 1 C1.6875 2.9375 1.6875 2.9375 1 5 C-2 6 -2 6 -5 5 C-3.35 3.35 -1.7 1.7 0 0 Z " fill="#5DB6E1" transform="translate(214,141)"/>
<path d="M0 0 C0.33 0.99 0.66 1.98 1 3 C0.01 4.485 0.01 4.485 -1 6 C-0.34 6.33 0.32 6.66 1 7 C-0.32 8.98 -1.64 10.96 -3 13 C-4.12509213 9.62472362 -3.90597042 9.08116594 -2.625 5.9375 C-2.34914062 5.24527344 -2.07328125 4.55304688 -1.7890625 3.83984375 C-1.23249348 2.54210114 -0.63149109 1.26298217 0 0 Z " fill="#24B1DE" transform="translate(170,132)"/>
<path d="M0 0 C0.66 0.33 1.32 0.66 2 1 C1.34 2.32 0.68 3.64 0 5 C0.66 5.33 1.32 5.66 2 6 C0.625 8 0.625 8 -1 10 C-1.66 10 -2.32 10 -3 10 C-2.01 6.7 -1.02 3.4 0 0 Z " fill="#B8DBEE" transform="translate(216,146)"/>
<path d="M0 0 C3.3 0 6.6 0 10 0 C9.67 1.65 9.34 3.3 9 5 C8.67 4.01 8.34 3.02 8 2 C5.36 2 2.72 2 0 2 C0 1.34 0 0.68 0 0 Z " fill="#13ADE3" transform="translate(365,132)"/>
<path d="M0 0 C0.66 0.33 1.32 0.66 2 1 C-0.64 2.98 -3.28 4.96 -6 7 C-6 5.68 -6 4.36 -6 3 C-4.03533587 1.93224776 -2.03144641 0.93446535 0 0 Z " fill="#0577B0" transform="translate(375,215)"/>
<path d="M0 0 C0.33 0.66 0.66 1.32 1 2 C-0.98 4.97 -0.98 4.97 -3 8 C-5 6 -5 6 -5.125 3.375 C-5.08375 2.59125 -5.0425 1.8075 -5 1 C-3.02 1.99 -3.02 1.99 -1 3 C-0.67 2.01 -0.34 1.02 0 0 Z " fill="#59BEE0" transform="translate(414,170)"/>
<path d="M0 0 C0 0.66 0 1.32 0 2 C-0.99 2 -1.98 2 -3 2 C-3.12375 2.639375 -3.2475 3.27875 -3.375 3.9375 C-3.58125 4.618125 -3.7875 5.29875 -4 6 C-4.99 6.495 -4.99 6.495 -6 7 C-6 6.34 -6 5.68 -6 5 C-6.66 4.67 -7.32 4.34 -8 4 C-2.25 0 -2.25 0 0 0 Z " fill="#2BA2CF" transform="translate(199,109)"/>
<path d="M0 0 C2.3431213 0.25561323 4.67843403 0.59270772 7 1 C7.33 1.66 7.66 2.32 8 3 C6.35 3.33 4.7 3.66 3 4 C2.01 2.68 1.02 1.36 0 0 Z " fill="#42B8E4" transform="translate(232,113)"/>
<path d="M0 0 C0.33 0 0.66 0 1 0 C1.34833144 4.87664009 0.41685712 7.77050005 -2 12 C-2.66 11.67 -3.32 11.34 -4 11 C-3.71125 10.484375 -3.4225 9.96875 -3.125 9.4375 C-1.71219973 6.37643275 -0.8751483 3.25055082 0 0 Z " fill="#BBD4EB" transform="translate(140,200)"/>
<path d="M0 0 C1.32 0.33 2.64 0.66 4 1 C4 1.66 4 2.32 4 3 C6.97 3 9.94 3 13 3 C13 3.33 13 3.66 13 4 C9.37 4 5.74 4 2 4 C1.34 2.68 0.68 1.36 0 0 Z " fill="#30BFEE" transform="translate(307,150)"/>
<path d="M0 0 C1.13643966 3.40931897 0.86747764 4.00335456 -0.4375 7.1875 C-0.86869141 8.26064453 -0.86869141 8.26064453 -1.30859375 9.35546875 C-1.53675781 9.89816406 -1.76492188 10.44085938 -2 11 C-2.86408912 7.8879798 -3.09531738 6.08680353 -2 3 C-1.34 2.01 -0.68 1.02 0 0 Z " fill="#57B3DE" transform="translate(370,143)"/>
<path d="M0 0 C0.94875 0.04125 1.8975 0.0825 2.875 0.125 C2.25625 0.558125 1.6375 0.99125 1 1.4375 C-1.3447245 3.12240483 -1.3447245 3.12240483 -3.125 6.125 C-3.785 4.805 -4.445 3.485 -5.125 2.125 C-3.125 0.125 -3.125 0.125 0 0 Z " fill="#07609E" transform="translate(273.125,105.875)"/>
<path d="M0 0 C2.475 0.495 2.475 0.495 5 1 C3.515 4.465 3.515 4.465 2 8 C-0.1519437 4.77208445 -0.20086443 3.71599191 0 0 Z " fill="#1EAEDC" transform="translate(254,191)"/>
</svg>
