<?xml version="1.0" encoding="UTF-8"?>
<svg version="1.1" xmlns="http://www.w3.org/2000/svg" width="374" height="135">
<path d="M0 0 C123.42 0 246.84 0 374 0 C374 44.55 374 89.1 374 135 C250.58 135 127.16 135 0 135 C0 90.45 0 45.9 0 0 Z " fill="#011527" transform="translate(0,0)"/>
<path d="M0 0 C2.97 0 5.94 0 9 0 C9 1.65 9 3.3 9 5 C8.01 5.495 8.01 5.495 7 6 C6.34 5.01 5.68 4.02 5 3 C4.67 3 4.34 3 4 3 C4 4.65 4 6.3 4 8 C5.65 8.33 7.3 8.66 9 9 C9 9.66 9 10.32 9 11 C8.01 11.33 7.02 11.66 6 12 C6.99 12 7.98 12 9 12 C9 12.99 9 13.98 9 15 C9.66 15 10.32 15 11 15 C11 14.34 11 13.68 11 13 C13.45685425 13.42359556 14.6964912 13.65510363 16.375 15.5625 C18.03762133 17.33136725 18.03762133 17.33136725 21.1875 17.1875 C22.115625 17.125625 23.04375 17.06375 24 17 C24.33 15.68 24.66 14.36 25 13 C24.34 13 23.68 13 23 13 C23 13.66 23 14.32 23 15 C22.34 15 21.68 15 21 15 C21 14.01 21 13.02 21 12 C19.35 11.34 17.7 10.68 16 10 C18 8 18 8 21.4765625 7.8046875 C22.85950968 7.81798507 24.24238654 7.84183768 25.625 7.875 C26.33140625 7.88402344 27.0378125 7.89304687 27.765625 7.90234375 C29.51056098 7.92592397 31.25532295 7.96179539 33 8 C33 7.34 33 6.68 33 6 C33.66 6 34.32 6 35 6 C35 5.01 35 4.02 35 3 C35.99 3 36.98 3 38 3 C38 3.99 38 4.98 38 6 C37.34 6 36.68 6 36 6 C36 6.66 36 7.32 36 8 C36.99 8 37.98 8 39 8 C39 8.66 39 9.32 39 10 C38.360625 10.12375 37.72125 10.2475 37.0625 10.375 C36.381875 10.58125 35.70125 10.7875 35 11 C34.67 11.66 34.34 12.32 34 13 C34 12.01 34 11.02 34 10 C33.34 10 32.68 10 32 10 C32.495 12.475 32.495 12.475 33 15 C31.02 15.33 29.04 15.66 27 16 C27.2475 17.670625 27.2475 17.670625 27.5 19.375 C28 23 28 23 28 25 C25.69 25 23.38 25 21 25 C20.67 24.01 20.34 23.02 20 22 C19.34 22 18.68 22 18 22 C18.33 22.99 18.66 23.98 19 25 C20.32303717 25.3721042 21.65737935 25.70630173 23 26 C23.33 26.66 23.66 27.32 24 28 C24.495 27.835 24.99 27.67 25.5 27.5 C27.84808532 27.03038294 29.74611065 26.9976212 32.125 27.0625 C36.01461069 27.44913022 36.01461069 27.44913022 38 25 C38.66 24.01 39.32 23.02 40 22 C40.66 22 41.32 22 42 22 C42 22.66 42 23.32 42 24 C42.66 24.33 43.32 24.66 44 25 C44 24.34 44 23.68 44 23 C44.99 23.33 45.98 23.66 47 24 C48.55908654 24.36890303 50.12193041 24.72215879 51.6875 25.0625 C52.89986328 25.32740234 52.89986328 25.32740234 54.13671875 25.59765625 C54.75160156 25.73042969 55.36648437 25.86320312 56 26 C56 26.33 56 26.66 56 27 C50.39 27 44.78 27 39 27 C39 27.66 39 28.32 39 29 C39.9472998 28.97905273 40.89459961 28.95810547 41.87060547 28.93652344 C45.43044016 28.8678058 48.98955652 28.81794005 52.54980469 28.78027344 C54.08214534 28.76032276 55.61441152 28.73315184 57.14648438 28.69824219 C69.79788362 28.41746701 78.85341418 30.05919371 89 38 C87.69008448 41.92974657 86.23766246 42.30895882 82.6875 44.375 C78.32585703 46.93464372 74.07632284 49.59684411 69.8984375 52.44921875 C69.01712158 53.04492676 68.13580566 53.64063477 67.2277832 54.25439453 C65.47005131 55.44682491 63.72089706 56.65201209 61.98120117 57.87060547 C55.79326118 62.02842304 55.79326118 62.02842304 51.40234375 61.87109375 C50.60957031 61.58363281 49.81679688 61.29617187 49 61 C49 60.34 49 59.68 49 59 C50.984375 57.56713867 50.984375 57.56713867 53.75 55.91796875 C55.25240234 55.01401367 55.25240234 55.01401367 56.78515625 54.09179688 C57.84605469 53.46337891 58.90695313 52.83496094 60 52.1875 C62.06272056 50.95219113 64.12522451 49.71652049 66.1875 48.48046875 C68.96606517 46.81541267 71.74426811 45.15067101 74.53515625 43.50634766 C76.3904417 42.39178574 78.20149838 41.20404496 80 40 C80 39.34 80 38.68 80 38 C72.14662051 34.14564401 64.05271627 34.44296835 55.5 34.3125 C53.99476282 34.27927717 52.48955313 34.24478303 50.984375 34.20898438 C47.32289596 34.12228636 43.66232168 34.06174845 40 34 C40 40.6 40 47.2 40 54 C38.68 54 37.36 54 36 54 C36 54.99 36 55.98 36 57 C36.66773438 57.23332031 37.33546875 57.46664062 38.0234375 57.70703125 C41.80808478 59.35101845 45.15270521 61.47144026 48.625 63.6875 C49.32778076 64.13158203 50.03056152 64.57566406 50.75463867 65.03320312 C52.83893875 66.35155562 54.91970311 67.67534261 57 69 C58.1287111 69.71515185 59.2575996 70.43002383 60.38671875 71.14453125 C70.95535714 77.84693878 70.95535714 77.84693878 71.546875 79.875 C71.64742187 80.926875 71.64742187 80.926875 71.75 82 C71.86601562 83.051875 71.86601562 83.051875 71.984375 84.125 C72 86 72 86 71 88 C71.66 88 72.32 88 73 88 C73 77.44 73 66.88 73 56 C73.33 56 73.66 56 74 56 C74 70.19 74 84.38 74 99 C72 98 72 98 71 97 C71 98.32 71 99.64 71 101 C59.12 101 47.24 101 35 101 C35 86.48 35 71.96 35 57 C34.34 57 33.68 57 33 57 C32.505 54.03 32.505 54.03 32 51 C32.66 51 33.32 51 34 51 C33.505 47.04 33.505 47.04 33 43 C32.01 43.495 32.01 43.495 31 44 C31 40.7 31 37.4 31 34 C30.67 34.99 30.34 35.98 30 37 C29.34 37 28.68 37 28 37 C28 37.66 28 38.32 28 39 C27.34 39 26.68 39 26 39 C26 37.35 26 35.7 26 34 C25.4225 34.185625 24.845 34.37125 24.25 34.5625 C21.79307475 35.04023546 20.35602466 34.75729364 18 34 C18.165 34.763125 18.33 35.52625 18.5 36.3125 C18.98753647 38.93300853 19 41.3451321 19 44 C18.34 44 17.68 44 17 44 C17.66 45.32 18.32 46.64 19 48 C17.02 47.34 15.04 46.68 13 46 C13.33 46.33 13.66 46.66 14 47 C14.34153937 48.66500443 14.67449498 50.33178677 15 52 C15.33 52.66 15.66 53.32 16 54 C14.35 54 12.7 54 11 54 C11 53.34 11 52.68 11 52 C10.01 51.67 9.02 51.34 8 51 C8 49.68 8 48.36 8 47 C6.2984375 47.2475 6.2984375 47.2475 4.5625 47.5 C1 48 1 48 0 48 C0 32.16 0 16.32 0 0 Z " fill="#061828" transform="translate(0,0)"/>
<path d="M0 0 C3.5578125 -0.0928125 3.5578125 -0.0928125 7.1875 -0.1875 C8.29387817 -0.22846802 8.29387817 -0.22846802 9.42260742 -0.27026367 C13.84051065 -0.32574848 16.50904634 0.29050752 20 3 C23.27133518 7.57986926 23.14082986 10.92104411 22.32421875 16.2421875 C22.21722656 16.82226562 22.11023438 17.40234375 22 18 C22.66 18 23.32 18 24 18 C24 17.34 24 16.68 24 16 C28.86051596 13.40772482 33.65271133 13.81310447 39 14 C38.34 12.02 37.68 10.04 37 8 C33.7 8.33 30.4 8.66 27 9 C29.86775051 6.13224949 31.3290794 5.31776637 35 4 C35.66 3.67 36.32 3.34 37 3 C37.99 3 38.98 3 40 3 C40.99 2.67 41.98 2.34 43 2 C43.66 2 44.32 2 45 2 C45.61875 1.62875 46.2375 1.2575 46.875 0.875 C49 0 49 0 51.25 0.875 C51.8275 1.24625 52.405 1.6175 53 2 C52.34 2 51.68 2 51 2 C50.67 2.66 50.34 3.32 50 4 C51.65 4 53.3 4 55 4 C54.505 2.02 54.505 2.02 54 0 C54.66 0 55.32 0 56 0 C56.08378906 0.61746094 56.16757813 1.23492187 56.25390625 1.87109375 C56.80215746 4.12832824 56.80215746 4.12832824 58.77734375 5.16015625 C59.84662109 5.60681641 59.84662109 5.60681641 60.9375 6.0625 C64.23258319 7.45588364 64.90387694 7.85581541 67 11 C67.5493667 15.86581934 67.73490373 17.8976444 65 22 C60.92887758 24.71408161 58.8224083 24.47433524 54 24 C53.34 23.67 52.68 23.34 52 23 C51.896875 24.27875 51.79375 25.5575 51.6875 26.875 C51.51171875 29.0546875 51.51171875 29.0546875 51 31 C50.01 31.66 49.02 32.32 48 33 C45.01720539 35.40918026 44.68074202 37.30454331 44 41 C43.01 41.495 43.01 41.495 42 42 C42.226875 42.763125 42.45375 43.52625 42.6875 44.3125 C43 47 43 47 41.875 48.875 C40 50 40 50 37.3125 49.6875 C36.549375 49.460625 35.78625 49.23375 35 49 C34 43.125 34 43.125 34 42 C33.34 42 32.68 42 32 42 C32 42.66 32 43.32 32 44 C31.34 44 30.68 44 30 44 C30 45.98 30 47.96 30 50 C29.67 50 29.34 50 29 50 C28.505 46.04 28.505 46.04 28 42 C26.515 42.495 26.515 42.495 25 43 C24.01 43 23.02 43 22 43 C21.67 44.65 21.34 46.3 21 48 C22.98 48 24.96 48 27 48 C27 48.66 27 49.32 27 50 C24.6568787 49.74438677 22.32156597 49.40729228 20 49 C19.67 48.34 19.34 47.68 19 47 C18.01 47.99 17.02 48.98 16 50 C16 47.03 16 44.06 16 41 C15.34 41 14.68 41 14 41 C13.67 43.97 13.34 46.94 13 50 C12.34 50 11.68 50 11 50 C10.80448662 48.39679026 10.61888017 46.79237014 10.4375 45.1875 C10.33308594 44.29417969 10.22867188 43.40085938 10.12109375 42.48046875 C10 40 10 40 11 37 C10.01 36.67 9.02 36.34 8 36 C8 35.34 8 34.68 8 34 C5.66924071 34.95865509 5.66924071 34.95865509 4 38 C4 37.34 4 36.68 4 36 C3.01 36 2.02 36 1 36 C1 35.01 1 34.02 1 33 C0.01 33.495 0.01 33.495 -1 34 C-1.12375 33.195625 -1.2475 32.39125 -1.375 31.5625 C-1.58125 30.716875 -1.7875 29.87125 -2 29 C-2.66 28.67 -3.32 28.34 -4 28 C-4 27.34 -4 26.68 -4 26 C-1.36 26 1.28 26 4 26 C2.68 25.67 1.36 25.34 0 25 C0 16.75 0 8.5 0 0 Z " fill="#07192A" transform="translate(116,40)"/>
<path d="M0 0 C0.66 0 1.32 0 2 0 C2.33 0.66 2.66 1.32 3 2 C3.66 1.34 4.32 0.68 5 0 C8.07737469 -0.62877597 10.92191348 -0.61774747 14 0 C17.3604292 2.47610573 19.39103125 6.19698295 21 10 C21.2475 9.0925 21.495 8.185 21.75 7.25 C23.09119428 3.76289487 23.95179243 2.1419837 27 0 C31.26849236 -0.45733847 34.39523215 -0.39076545 38 2 C39.046875 4.05859375 39.046875 4.05859375 39.75 6.4375 C39.99234375 7.21996094 40.2346875 8.00242187 40.484375 8.80859375 C41 11 41 11 41 14 C43.31459868 12.18182999 43.95377187 11.24384457 44.51171875 8.30078125 C44.59873047 6.82158203 44.59873047 6.82158203 44.6875 5.3125 C44.75324219 4.31863281 44.81898438 3.32476562 44.88671875 2.30078125 C44.92410156 1.54152344 44.96148437 0.78226563 45 0 C48 0 51 0 54 0 C54 0.66 54 1.32 54 2 C52.35 2.66 50.7 3.32 49 4 C49.66 4 50.32 4 51 4 C51 5.65 51 7.3 51 9 C50.67 9 50.34 9 50 9 C49.67 11.97 49.34 14.94 49 18 C49.99 18.33 50.98 18.66 52 19 C51.01 19.33 50.02 19.66 49 20 C50.08784968 23.24983135 50.08784968 23.24983135 52 26 C52 26.99 52 27.98 52 29 C52.66 29.33 53.32 29.66 54 30 C53.34 30 52.68 30 52 30 C51.83232136 31.95824694 51.66588795 33.91660055 51.5 35.875 C51.36078125 37.51082031 51.36078125 37.51082031 51.21875 39.1796875 C51.09437042 40.78329564 51 42.39157551 51 44 C50.34 44 49.68 44 49 44 C49 43.01 49 42.02 49 41 C43.98464948 41.32960216 43.98464948 41.32960216 40 44 C40 42.68 40 41.36 40 40 C39.34 40 38.68 40 38 40 C37.67 39.34 37.34 38.68 37 38 C36.67 38.99 36.34 39.98 36 41 C35.34 41.99 34.68 42.98 34 44 C33.34 44 32.68 44 32 44 C32 42.35 32 40.7 32 39 C30.68 38.67 29.36 38.34 28 38 C27.67 39.98 27.34 41.96 27 44 C26.67 44 26.34 44 26 44 C26 41.03 26 38.06 26 35 C26.66 34.67 27.32 34.34 28 34 C27.236875 34 26.47375 34 25.6875 34 C23.79166667 34 21.89583333 34 20 34 C20.33 33.01 20.66 32.02 21 31 C20.67 30.34 20.34 29.68 20 29 C20.66 29 21.32 29 22 29 C22.33 28.34 22.66 27.68 23 27 C22.071875 27.33 21.14375 27.66 20.1875 28 C17 29 17 29 14 29 C13.67 29.66 13.34 30.32 13 31 C13.66 31 14.32 31 15 31 C15 34.96 15 38.92 15 43 C14.01 43.495 14.01 43.495 13 44 C12.67 42.02 12.34 40.04 12 38 C10.68 39.32 9.36 40.64 8 42 C7.01 40.68 6.02 39.36 5 38 C4.67 39.98 4.34 41.96 4 44 C3.34 44 2.68 44 2 44 C1.67 41.03 1.34 38.06 1 35 C0.67 36.32 0.34 37.64 0 39 C-0.66 39 -1.32 39 -2 39 C-1.34 40.65 -0.68 42.3 0 44 C-0.99 43.34 -1.98 42.68 -3 42 C-3 41.34 -3 40.68 -3 40 C-4.65 40 -6.3 40 -8 40 C-8.33 41.32 -8.66 42.64 -9 44 C-9 40.04 -9 36.08 -9 32 C-6.36 32 -3.72 32 -1 32 C-1.33 31.34 -1.66 30.68 -2 30 C-1.34 30 -0.68 30 0 30 C0 29.01 0 28.02 0 27 C0.66 27 1.32 27 2 27 C2.33 26.34 2.66 25.68 3 25 C2.01 25 1.02 25 0 25 C0 16.75 0 8.5 0 0 Z " fill="#0B1B2B" transform="translate(188,46)"/>
<path d="M0 0 C8.99703766 4.49851883 8.99703766 4.49851883 12.11328125 6.55078125 C12.7990625 6.99832764 13.48484375 7.44587402 14.19140625 7.90698242 C14.89136719 8.37080322 15.59132813 8.83462402 16.3125 9.3125 C22.31306231 13.31298163 22.31306231 13.31298163 28.51171875 16.9921875 C35.56503159 20.99367479 35.56503159 20.99367479 36.921875 24.1328125 C37.36210442 27.05719365 37.33516907 29.32966186 36 32 C36.66 32 37.32 32 38 32 C38 21.44 38 10.88 38 0 C38.33 0 38.66 0 39 0 C39 14.19 39 28.38 39 43 C37 42 37 42 36 41 C36 42.32 36 43.64 36 45 C24.12 45 12.24 45 0 45 C0 30.15 0 15.3 0 0 Z " fill="#021424" transform="translate(35,56)"/>
<path d="M0 0 C5.08719555 -0.09240113 10.17141937 -0.17185895 15.25878906 -0.21972656 C16.98512702 -0.23970285 18.71139853 -0.26689372 20.4375 -0.30175781 C33.80984677 -0.56487112 43.18096093 0.53292594 54 9 C52.69008448 12.92974657 51.23766246 13.30895882 47.6875 15.375 C43.32585703 17.93464372 39.07632284 20.59684411 34.8984375 23.44921875 C34.01712158 24.04492676 33.13580566 24.64063477 32.2277832 25.25439453 C30.47005131 26.44682491 28.72089706 27.65201209 26.98120117 28.87060547 C20.79326118 33.02842304 20.79326118 33.02842304 16.40234375 32.87109375 C15.60957031 32.58363281 14.81679688 32.29617187 14 32 C14 31.34 14 30.68 14 30 C15.984375 28.56713867 15.984375 28.56713867 18.75 26.91796875 C19.75160156 26.31533203 20.75320312 25.71269531 21.78515625 25.09179688 C22.84605469 24.46337891 23.90695313 23.83496094 25 23.1875 C27.06272056 21.95219113 29.12522451 20.71652049 31.1875 19.48046875 C33.96606517 17.81541267 36.74426811 16.15067101 39.53515625 14.50634766 C41.3904417 13.39178574 43.20149838 12.20404496 45 11 C45 10.34 45 9.68 45 9 C37.03727592 5.05040415 28.68627429 5.44080947 20 5.3125 C18.44658657 5.2792797 16.89319983 5.24478578 15.33984375 5.20898438 C11.55987526 5.12225084 7.78078715 5.06173583 4 5 C4 11.27 4 17.54 4 24 C2.68 23.67 1.36 23.34 0 23 C0 15.41 0 7.82 0 0 Z " fill="#E87D24" transform="translate(35,29)"/>
<path d="M0 0 C8.99703766 4.49851883 8.99703766 4.49851883 12.11328125 6.55078125 C12.79914307 6.99856934 13.48500488 7.44635742 14.19165039 7.90771484 C14.89153076 8.37129395 15.59141113 8.83487305 16.3125 9.3125 C22.35764165 13.31996639 22.35764165 13.31996639 28.546875 17.09765625 C29.54203125 17.68417969 30.5371875 18.27070312 31.5625 18.875 C32.43003906 19.36742188 33.29757813 19.85984375 34.19140625 20.3671875 C36 22 36 22 36.27734375 24.6953125 C36.14005859 25.83613281 36.14005859 25.83613281 36 27 C35.34 27 34.68 27 34 27 C34 26.34 34 25.68 34 25 C33.46246094 24.90847656 32.92492187 24.81695312 32.37109375 24.72265625 C29.23999219 23.76836665 26.82979571 22.18544574 24.0625 20.4375 C23.04285156 19.79683594 22.02320312 19.15617187 20.97265625 18.49609375 C19.00619141 17.26052734 19.00619141 17.26052734 17 16 C10.565 12.04 10.565 12.04 4 8 C4 18.56 4 29.12 4 40 C14.56 40 25.12 40 36 40 C36 41.65 36 43.3 36 45 C24.12 45 12.24 45 0 45 C0 30.15 0 15.3 0 0 Z " fill="#E10F67" transform="translate(35,56)"/>
<path d="M0 0 C1.796875 0.18359375 1.796875 0.18359375 4 1 C9.62621831 8.13600625 11.06615981 16.26257441 10.51171875 25.09765625 C9.178023 35.26835895 4.62090952 43.1889025 -3 50 C-5.28791926 51.59654008 -7.47995948 52.76468602 -10 54 C-10.99 54.66 -11.98 55.32 -13 56 C-13.99 56 -14.98 56 -16 56 C-16 40.82 -16 25.64 -16 10 C-14.35 9.34 -12.7 8.68 -11 8 C-11 21.53 -11 35.06 -11 49 C-4.66801666 44.25101249 -1.42678491 41.58717665 2 35 C2.79277344 33.59621094 2.79277344 33.59621094 3.6015625 32.1640625 C6.0765579 26.56421258 5.82450264 20.99349994 5 15 C3.64545927 11.59834262 2.08946119 8.56714699 0.21484375 5.42578125 C-0.18605469 4.62527344 -0.58695313 3.82476562 -1 3 C-0.67 2.01 -0.34 1.02 0 0 Z " fill="#06A1B8" transform="translate(90,43)"/>
<path d="M0 0 C11.88163265 -0.57959184 11.88163265 -0.57959184 17 4 C18.87958314 7.75916628 18.63484996 11.91515733 18 16 C15.23076923 19.84615385 15.23076923 19.84615385 12 21 C7.90133957 21.39109355 4.13652237 21.2298068 0 21 C0 14.07 0 7.14 0 0 Z " fill="#021223" transform="translate(118,41)"/>
<path d="M0 0 C5.61 0 11.22 0 17 0 C17 1.98 17 3.96 17 6 C16.34 6.66 15.68 7.32 15 8 C15.66 8 16.32 8 17 8 C17 9.98 17 11.96 17 14 C17.99 14 18.98 14 20 14 C20 12.02 20 10.04 20 8 C21.65 7.34 23.3 6.68 25 6 C24.67 4.68 24.34 3.36 24 2 C24.99 2.33 25.98 2.66 27 3 C27 6.96 27 10.92 27 15 C26.34 15 25.68 15 25 15 C24.67 13.35 24.34 11.7 24 10 C23.01 10 22.02 10 21 10 C21.33 10.825 21.66 11.65 22 12.5 C23.16620444 16.58171556 23.07047558 19.77146498 23 24 C23.33 24.66 23.66 25.32 24 26 C21.36 26 18.72 26 16 26 C15.67 24.68 15.34 23.36 15 22 C15.66 22 16.32 22 17 22 C17 21.34 17 20.68 17 20 C16.34 20 15.68 20 15 20 C15 19.01 15 18.02 15 17 C15.66 16.67 16.32 16.34 17 16 C16.34 15.67 15.68 15.34 15 15 C15 13.35 15 11.7 15 10 C14.67 10.99 14.34 11.98 14 13 C13.34 13 12.68 13 12 13 C12 13.66 12 14.32 12 15 C11.360625 15.268125 10.72125 15.53625 10.0625 15.8125 C7.66868314 16.88667752 7.66868314 16.88667752 7 20 C6.01 19.67 5.02 19.34 4 19 C4.66 18.67 5.32 18.34 6 18 C5.67 16.35 5.34 14.7 5 13 C5.66 13 6.32 13 7 13 C7.66 12.34 8.32 11.68 9 11 C9.33 11 9.66 11 10 11 C8.72125 10.979375 7.4425 10.95875 6.125 10.9375 C5.40570313 10.92589844 4.68640625 10.91429687 3.9453125 10.90234375 C1.91814596 10.87350758 1.91814596 10.87350758 0 12 C0.33 10.68 0.66 9.36 1 8 C1.66 8 2.32 8 3 8 C3 7.34 3 6.68 3 6 C2.01 6 1.02 6 0 6 C0 4.02 0 2.04 0 0 Z " fill="#081929" transform="translate(40,0)"/>
<path d="M0 0 C4.62671431 -0.04596074 9.25263367 -0.08577059 13.87939453 -0.10986328 C15.45266405 -0.11990887 17.02591496 -0.13354781 18.59912109 -0.15087891 C20.86300252 -0.17519096 23.12663666 -0.18649747 25.390625 -0.1953125 C26.09181458 -0.20563507 26.79300415 -0.21595764 27.51544189 -0.22659302 C31.18563476 -0.22743257 33.88089213 -0.02112595 37 2 C37 2.66 37 3.32 37 4 C21.16 4.495 21.16 4.495 5 5 C4.67 11.27 4.34 17.54 4 24 C2.68 23.67 1.36 23.34 0 23 C0 15.41 0 7.82 0 0 Z " fill="#F68222" transform="translate(35,29)"/>
<path d="M0 0 C2 0 4 0 6 0 C6 4.95 6 9.9 6 15 C8.64 15 11.28 15 14 15 C14 14.34 14 13.68 14 13 C12.02 13 10.04 13 8 13 C8 12.01 8 11.02 8 10 C9.98 10 11.96 10 14 10 C14 9.34 14 8.68 14 8 C12.02 8 10.04 8 8 8 C8 7.01 8 6.02 8 5 C12.20594226 4.27204845 14.80104745 3.95026186 19 5 C19 8.3 19 11.6 19 15 C19.66 15.33 20.32 15.66 21 16 C20.34 16 19.68 16 19 16 C19.33 16.99 19.66 17.98 20 19 C19.67 19.66 19.34 20.32 19 21 C18.01 21 17.02 21 16 21 C16 20.34 16 19.68 16 19 C15.39671875 19.05800781 14.7934375 19.11601563 14.171875 19.17578125 C7.76023693 19.53772856 7.76023693 19.53772856 4.4375 17.1875 C2.32021676 12.49265456 2.68031615 8.07054109 3 3 C2.01 3 1.02 3 0 3 C0 2.01 0 1.02 0 0 Z " fill="#041426" transform="translate(272,75)"/>
<path d="M0 0 C2.71633191 0.88097251 3.66879565 1.50319347 5.25 3.875 C6 6 6 6 6 10 C0.72 10 -4.56 10 -10 10 C-9.01 11.65 -8.02 13.3 -7 15 C-4.79824693 15.63888946 -4.79824693 15.63888946 -2.4375 15.375 C-1.65246094 15.34148438 -0.86742187 15.30796875 -0.05859375 15.2734375 C2.05986094 15.10571533 2.05986094 15.10571533 4 14 C3.34 15.32 2.68 16.64 2 18 C-6.1627907 18.62790698 -6.1627907 18.62790698 -9.5 16.125 C-12.21712255 12.27574306 -12.48188268 9.738513 -12 5 C-8.54452318 0.07856332 -5.88775561 -0.74935071 0 0 Z " fill="#A5A7AC" transform="translate(222,46)"/>
<path d="M0 0 C3 0 6 0 9 0 C9.65097656 -0.02320312 10.30195313 -0.04640625 10.97265625 -0.0703125 C12.98121994 -0.12287305 14.99176042 -0.06375364 17 0 C17.66 0.66 18.32 1.32 19 2 C18.44444444 6.55555556 18.44444444 6.55555556 17 8 C15.00041636 8.04080783 12.99954746 8.04254356 11 8 C10.67 10.31 10.34 12.62 10 15 C10.66 15 11.32 15 12 15 C11.67 15.99 11.34 16.98 11 18 C11 17.34 11 16.68 11 16 C10.38125 15.87625 9.7625 15.7525 9.125 15.625 C7 15 7 15 5 13 C3.01643517 12.28591666 1.01684563 11.61382258 -1 11 C-0.67 10.34 -0.34 9.68 0 9 C2.97 9.495 2.97 9.495 6 10 C4.49336217 6.98672434 1.96833589 6.38943382 -1 5 C-0.67 3.35 -0.34 1.7 0 0 Z " fill="#144265" transform="translate(241,78)"/>
<path d="M0 0 C0.66 0.66 1.32 1.32 2 2 C1.625 4.4375 1.625 4.4375 1 7 C1 7.99 1 8.98 1 10 C1 10.99 1 11.98 1 13 C1.66 13.33 2.32 13.66 3 14 C3.33 12.68 3.66 11.36 4 10 C4.99 11.485 4.99 11.485 6 13 C8.42521494 13.58189266 8.42521494 13.58189266 11.125 13.6875 C12.49011719 13.78611328 12.49011719 13.78611328 13.8828125 13.88671875 C14.93082031 13.94279297 14.93082031 13.94279297 16 14 C16 14.66 16 15.32 16 16 C7.42 16 -1.16 16 -10 16 C-9.67 15.34 -9.34 14.68 -9 14 C-6.9375 13.375 -6.9375 13.375 -5 13 C-5.33 11.35 -5.66 9.7 -6 8 C-6.33 9.32 -6.66 10.64 -7 12 C-7.66 12 -8.32 12 -9 12 C-9.103125 11.236875 -9.20625 10.47375 -9.3125 9.6875 C-10.04364039 6.82940576 -10.76951913 5.84257115 -13 4 C-12.67 3.34 -12.34 2.68 -12 2 C-11.34 2.66 -10.68 3.32 -10 4 C-9.67 2.35 -9.34 0.7 -9 -1 C-5.19825711 -2.26724763 -3.6488868 -1.4750819 0 0 Z " fill="#697580" transform="translate(347,110)"/>
<path d="M0 0 C1.98 0.66 3.96 1.32 6 2 C6 9.92 6 17.84 6 26 C6.99 26 7.98 26 9 26 C8.67 26.99 8.34 27.98 8 29 C7.34 28.67 6.68 28.34 6 28 C4.98888907 31.04913228 4.98888907 31.04913228 6 34 C3.03 33.67 0.06 33.34 -3 33 C-3 36.96 -3 40.92 -3 45 C-4.32 44.34 -5.64 43.68 -7 43 C-6.68991116 41.39536551 -6.37683713 39.79130769 -6.0625 38.1875 C-5.88847656 37.29417969 -5.71445313 36.40085938 -5.53515625 35.48046875 C-5 33 -5 33 -4 30 C-4.99 29.67 -5.98 29.34 -7 29 C-6.34 29 -5.68 29 -5 29 C-4.67 28.34 -4.34 27.68 -4 27 C-1.625 26.8125 -1.625 26.8125 1 27 C1.66 27.99 2.32 28.98 3 30 C3.66 28.68 4.32 27.36 5 26 C4.34 25.67 3.68 25.34 3 25 C3.66 25 4.32 25 5 25 C5 23.35 5 21.7 5 20 C4.34 20 3.68 20 3 20 C3 18.35 3 16.7 3 15 C2.01 15.33 1.02 15.66 0 16 C0.03480469 15.00419922 0.03480469 15.00419922 0.0703125 13.98828125 C0.23624305 7.27138984 0.23624305 7.27138984 -2 1 C-1.34 0.67 -0.68 0.34 0 0 Z " fill="#010B1B" transform="translate(182,45)"/>
<path d="M0 0 C1.94140625 0.3828125 1.94140625 0.3828125 4.44140625 2.0078125 C6.39703107 5.10421846 6.54165102 6.78134385 5.94140625 10.3828125 C4.44140625 12.7578125 4.44140625 12.7578125 1.94140625 14.3828125 C-1.02175425 14.96709767 -2.96018936 14.77626068 -6.05859375 14.3828125 C-8.76275176 12.18568411 -9.0035212 10.82339289 -9.43359375 7.3828125 C-8.65986906 1.19301496 -6.313202 -0.34879569 0 0 Z " fill="#061222" transform="translate(199.05859375,47.6171875)"/>
<path d="M0 0 C10.89 0 21.78 0 33 0 C33 1.65 33 3.3 33 5 C21.12 5 9.24 5 -3 5 C-3 4.01 -3 3.02 -3 2 C-2.01 2 -1.02 2 0 2 C0 1.34 0 0.68 0 0 Z " fill="#D50F62" transform="translate(38,96)"/>
<path d="M0 0 C3.06662015 0.74752545 4.18907337 1.95414815 6.03515625 4.49609375 C6.42578125 7.94921875 6.42578125 7.94921875 6.28515625 11.74609375 C6.2490625 13.009375 6.21296875 14.27265625 6.17578125 15.57421875 C6.10617188 17.02054688 6.10617188 17.02054688 6.03515625 18.49609375 C5.04515625 18.16609375 4.05515625 17.83609375 3.03515625 17.49609375 C2.37515625 17.82609375 1.71515625 18.15609375 1.03515625 18.49609375 C-0.83984375 18.6640625 -0.83984375 18.6640625 -2.96484375 18.68359375 C-4.01671875 18.70486328 -4.01671875 18.70486328 -5.08984375 18.7265625 C-6.96484375 18.49609375 -6.96484375 18.49609375 -8.96484375 16.49609375 C-9.21484375 13.49609375 -9.21484375 13.49609375 -8.96484375 10.49609375 C-6.96484375 8.49609375 -6.96484375 8.49609375 -4.58203125 8.30078125 C-3.67710937 8.32398438 -2.7721875 8.3471875 -1.83984375 8.37109375 C-0.47472656 8.39816406 -0.47472656 8.39816406 0.91796875 8.42578125 C1.61664063 8.44898438 2.3153125 8.4721875 3.03515625 8.49609375 C2.37515625 6.51609375 1.71515625 4.53609375 1.03515625 2.49609375 C-2.26484375 2.82609375 -5.56484375 3.15609375 -8.96484375 3.49609375 C-5.64602571 0.17727571 -4.52022476 0.13064233 0 0 Z " fill="#B9BAC1" transform="translate(151.96484375,45.50390625)"/>
<path d="M0 0 C6.37778364 -0.01047255 6.37778364 -0.01047255 9.00390625 2.05859375 C10.5435622 5.95905548 10.57182162 8.93635725 8.94140625 12.80859375 C6.23115515 15.01067277 4.23262508 14.94942136 0.81640625 14.7421875 C-1.05859375 14.43359375 -1.05859375 14.43359375 -3.05859375 13.43359375 C-4.65172161 10.24733804 -4.60028416 6.92292419 -4.05859375 3.43359375 C-2.05859375 0.43359375 -2.05859375 0.43359375 0 0 Z " fill="#071425" transform="translate(171.05859375,47.56640625)"/>
<path d="M0 0 C0.66 0 1.32 0 2 0 C2 0.99 2 1.98 2 3 C0.02 3.33 -1.96 3.66 -4 4 C-4 7.63 -4 11.26 -4 15 C-6.31 15.33 -8.62 15.66 -11 16 C-11.33 15.34 -11.66 14.68 -12 14 C-12.33 14.99 -12.66 15.98 -13 17 C-13.99 16.67 -14.98 16.34 -16 16 C-16.625 13.625 -16.625 13.625 -17 11 C-16.34 10.34 -15.68 9.68 -15 9 C-14.32707499 7.03309626 -14.32707499 7.03309626 -13.875 4.875 C-13.58625 3.59625 -13.2975 2.3175 -13 1 C-12.319375 1.185625 -11.63875 1.37125 -10.9375 1.5625 C-7.40748567 2.08824681 -4.49153806 1.67144963 -1 1 C-0.67 0.67 -0.34 0.34 0 0 Z " fill="#111927" transform="translate(363,107)"/>
<path d="M0 0 C0.66 0 1.32 0 2 0 C2 4.62 2 9.24 2 14 C4.97 14.495 4.97 14.495 8 15 C8 15.66 8 16.32 8 17 C4.04 17 0.08 17 -4 17 C-4 16.01 -4 15.02 -4 14 C-5.66611905 13.957279 -7.33382885 13.95936168 -9 14 C-9.33 14.33 -9.66 14.66 -10 15 C-8.35 15 -6.7 15 -5 15 C-5 15.66 -5 16.32 -5 17 C-7.31 17 -9.62 17 -12 17 C-12 16.01 -12 15.02 -12 14 C-12.66 14 -13.32 14 -14 14 C-14 14.66 -14 15.32 -14 16 C-14.66 15.67 -15.32 15.34 -16 15 C-15.34 13.02 -14.68 11.04 -14 9 C-13.34 9 -12.68 9 -12 9 C-11.67 6.36 -11.34 3.72 -11 1 C-9.68 2.32 -8.36 3.64 -7 5 C-5.35 3.68 -3.7 2.36 -2 1 C-2 3.64 -2 6.28 -2 9 C-2.66 9 -3.32 9 -4 9 C-4.33 8.34 -4.66 7.68 -5 7 C-5.99 7 -6.98 7 -8 7 C-8.33 8.32 -8.66 9.64 -9 11 C-8.01 10.67 -7.02 10.34 -6 10 C-6 10.66 -6 11.32 -6 12 C-4.35 11.67 -2.7 11.34 -1 11 C-0.67 7.37 -0.34 3.74 0 0 Z " fill="#475360" transform="translate(328,109)"/>
<path d="M0 0 C1.32 0.33 2.64 0.66 4 1 C4.66 0.67 5.32 0.34 6 0 C12.97142857 -0.68571429 12.97142857 -0.68571429 17 2 C19.21925086 5.32887629 19.75890933 7.13936508 19.4765625 11.0625 C18.60276841 14.61497432 16.9838283 16.01078114 14 18 C10.50615283 18.57451407 7.23176757 18.61588379 4 17 C3.67 19.64 3.34 22.28 3 25 C2.01 25 1.02 25 0 25 C0 16.75 0 8.5 0 0 Z M3 5 C2.45830959 8.48933044 2.40687214 11.81374429 4 15 C7.26083766 16.63041883 10.44238446 16.65964122 14 16 C16.70415801 13.80287161 16.94492745 12.44058039 17.375 9 C16.94022957 5.52183659 16.77224169 4.18419042 14 2 C7.48819019 0.91614013 7.48819019 0.91614013 3 5 Z " fill="#B9BCBE" transform="translate(164,46)"/>
<path d="M0 0 C3.5578125 -0.0928125 3.5578125 -0.0928125 7.1875 -0.1875 C8.29387817 -0.22846802 8.29387817 -0.22846802 9.42260742 -0.27026367 C13.83692292 -0.32570342 16.52075603 0.27544498 20 3 C22.61525329 7.05815166 23.70124748 10.19144587 23 15 C20.88046975 18.86057296 18.84061171 21.81085133 15 24 C12.30796435 24.21479008 9.92275886 24.28526276 7.25 24.1875 C4.8575 24.125625 2.465 24.06375 0 24 C0 16.08 0 8.16 0 0 Z M2 1 C2 7.93 2 14.86 2 22 C10.22865725 22.80924762 10.22865725 22.80924762 17.75 20.125 C20.49047674 16.31878231 20.80294939 13.98632156 20.53515625 9.37890625 C19.72633379 5.78348377 17.90389542 4.14335138 15 2 C11.14854957 0.07427479 6.19956748 0.95116782 2 1 Z " fill="#C7CACC" transform="translate(116,40)"/>
<path d="M0 0 C1.32 0.33 2.64 0.66 4 1 C4.02468857 5.5206665 4.04285449 10.0412939 4.05493164 14.56201172 C4.05996552 16.10043013 4.06679308 17.63884375 4.07543945 19.17724609 C4.08754639 21.38640526 4.09323769 23.59550126 4.09765625 25.8046875 C4.10281754 26.49432587 4.10797882 27.18396423 4.11329651 27.89450073 C4.11387171 32.77225659 4.11387171 32.77225659 3 35 C2.01 35 1.02 35 0 35 C0 23.45 0 11.9 0 0 Z " fill="#F10E6B" transform="translate(35,63)"/>
<path d="M0 0 C0.66 0 1.32 0 2 0 C2.33 0.66 2.66 1.32 3 2 C3.66 1.34 4.32 0.68 5 0 C8.07918506 -0.62914587 10.9185261 -0.60566901 14 0 C17.36912944 2.24093472 18.80099993 5.04479965 19.625 9 C18.73945496 13.25061619 17.25932425 15.14809128 14 18 C11.04208079 18.65603656 9.09449756 18.39929001 6 18 C5.01 17.34 4.02 16.68 3 16 C2.67 18.97 2.34 21.94 2 25 C1.34 25 0.68 25 0 25 C0 16.75 0 8.5 0 0 Z M3 3.625 C1.71707822 6.67193922 1.59004088 8.72032701 2 12 C2.83333333 14.5 2.83333333 14.5 5 16 C9.45665069 16.5659239 11.73102871 16.82483134 15.5 14.375 C17.45562482 11.27859404 17.60024477 9.60146865 17 6 C15.62716577 3.45997987 15.62716577 3.45997987 13 2 C9.26428429 1.26338 6.08248007 1.12048494 3 3.625 Z " fill="#BABEC2" transform="translate(188,46)"/>
<path d="M0 0 C6.27 0 12.54 0 19 0 C19 0.66 19 1.32 19 2 C17.68 2 16.36 2 15 2 C15 5.3 15 8.6 15 12 C14.34 12 13.68 12 13 12 C13 8.7 13 5.4 13 2 C9.37 2 5.74 2 2 2 C2 2.99 2 3.98 2 5 C3.98 5 5.96 5 8 5 C8 5.66 8 6.32 8 7 C6.02 7 4.04 7 2 7 C2 7.99 2 8.98 2 10 C3.98 10 5.96 10 8 10 C8 10.66 8 11.32 8 12 C5.36 12 2.72 12 0 12 C0 8.04 0 4.08 0 0 Z " fill="#216898" transform="translate(278,78)"/>
<path d="M0 0 C6.78982507 0.37035409 11.26884891 2.40476401 17 6 C17 6.66 17 7.32 17 8 C13.55286071 9.18495413 12.2155251 9.09815995 8.84375 7.5625 C2.11865242 4.91664831 -5.37170259 5.42123939 -12.5 5.3125 C-14.00523718 5.27927717 -15.51044687 5.24478303 -17.015625 5.20898438 C-20.67688192 5.12464864 -24.33821306 5.05757327 -28 5 C-28 4.67 -28 4.34 -28 4 C-17.44 4 -6.88 4 4 4 C4 3.34 4 2.68 4 2 C2.68 1.67 1.36 1.34 0 1 C0 0.67 0 0.34 0 0 Z " fill="#BA661F" transform="translate(68,29)"/>
<path d="M0 0 C0.99 0 1.98 0 3 0 C3 0.99 3 1.98 3 3 C2.34 3 1.68 3 1 3 C1 3.66 1 4.32 1 5 C1.99 5 2.98 5 4 5 C4 5.66 4 6.32 4 7 C3.360625 7.12375 2.72125 7.2475 2.0625 7.375 C1.381875 7.58125 0.70125 7.7875 0 8 C-0.33 8.66 -0.66 9.32 -1 10 C-1 9.01 -1 8.02 -1 7 C-1.66 7 -2.32 7 -3 7 C-2.67 8.65 -2.34 10.3 -2 12 C-2.66 12 -3.32 12 -4 12 C-4 10.35 -4 8.7 -4 7 C-4.33 7.99 -4.66 8.98 -5 10 C-5.66 10 -6.32 10 -7 10 C-7 10.66 -7 11.32 -7 12 C-7.66 12 -8.32 12 -9 12 C-9 10.68 -9 9.36 -9 8 C-9.33 8.66 -9.66 9.32 -10 10 C-10.66 10 -11.32 10 -12 10 C-12 10.66 -12 11.32 -12 12 C-12.66 12 -13.32 12 -14 12 C-14 11.01 -14 10.02 -14 9 C-16.475 8.01 -16.475 8.01 -19 7 C-17 5 -17 5 -13.5234375 4.8046875 C-12.14049032 4.81798507 -10.75761346 4.84183768 -9.375 4.875 C-8.66859375 4.88402344 -7.9621875 4.89304687 -7.234375 4.90234375 C-5.48943902 4.92592397 -3.74467705 4.96179539 -2 5 C-2 4.34 -2 3.68 -2 3 C-1.34 3 -0.68 3 0 3 C0 2.01 0 1.02 0 0 Z " fill="#0E2130" transform="translate(35,3)"/>
<path d="M0 0 C0.33 0 0.66 0 1 0 C1.33 8.58 1.66 17.16 2 26 C2.99 25.67 3.98 25.34 5 25 C5 25.66 5 26.32 5 27 C5.66 27 6.32 27 7 27 C7.33 28.65 7.66 30.3 8 32 C2.25 37 2.25 37 0 37 C0 24.79 0 12.58 0 0 Z " fill="#040E20" transform="translate(79,55)"/>
<path d="M0 0 C0.66 0.66 1.32 1.32 2 2 C1.34 2 0.68 2 0 2 C0.08378906 2.68707031 0.16757812 3.37414062 0.25390625 4.08203125 C0.35574219 4.98308594 0.45757812 5.88414063 0.5625 6.8125 C0.66691406 7.70582031 0.77132813 8.59914063 0.87890625 9.51953125 C1 12 1 12 0 15 C0.66 15 1.32 15 2 15 C2.33 14.34 2.66 13.68 3 13 C3.66 13.66 4.32 14.32 5 15 C5.33 13.68 5.66 12.36 6 11 C4.68 10.67 3.36 10.34 2 10 C2 8.35 2 6.7 2 5 C6.875 9.75 6.875 9.75 8 12 C7.67 12.99 7.34 13.98 7 15 C7.66 15 8.32 15 9 15 C9 11.37 9 7.74 9 4 C9.33 4 9.66 4 10 4 C10.03738281 4.77085938 10.07476562 5.54171875 10.11328125 6.3359375 C10.21189453 7.84027344 10.21189453 7.84027344 10.3125 9.375 C10.39951172 10.87160156 10.39951172 10.87160156 10.48828125 12.3984375 C10.65714844 13.25695312 10.82601563 14.11546875 11 15 C11.99 15.66 12.98 16.32 14 17 C12.64879233 17.22673326 11.29369222 17.43028793 9.9375 17.625 C9.18339844 17.74101563 8.42929687 17.85703125 7.65234375 17.9765625 C4.18495125 18.0072022 1.28409051 17.05315999 -2 16 C-1.85975781 13.52039864 -1.7130815 11.04147598 -1.5625 8.5625 C-1.52318359 7.85544922 -1.48386719 7.14839844 -1.44335938 6.41992188 C-1.11328125 1.11328125 -1.11328125 1.11328125 0 0 Z " fill="#0A111E" transform="translate(331,107)"/>
<path d="M0 0 C0 13.53 0 27.06 0 41 C-0.99 41 -1.98 41 -3 41 C-2.99476318 39.85934082 -2.98952637 38.71868164 -2.98413086 37.54345703 C-2.96606131 33.32048321 -2.95456081 29.09751282 -2.94506836 24.87451172 C-2.94003263 23.04507879 -2.93320373 21.21564991 -2.92456055 19.38623047 C-2.91246176 16.76008102 -2.90676417 14.13398468 -2.90234375 11.5078125 C-2.89718246 10.68693146 -2.89202118 9.86605042 -2.88670349 9.02029419 C-2.77648126 4.87788156 -2.77648126 4.87788156 -4 1 C-2 0 -2 0 0 0 Z " fill="#0297AE" transform="translate(79,51)"/>
<path d="M0 0 C0.66 0 1.32 0 2 0 C2 3.3 2 6.6 2 10 C2.99 10 3.98 10 5 10 C5.33 11.32 5.66 12.64 6 14 C4.68 13.67 3.36 13.34 2 13 C2.33 14.65 2.66 16.3 3 18 C3.33 17.01 3.66 16.02 4 15 C4.99 15.66 5.98 16.32 7 17 C6 20 6 20 3.9375 21.1875 C3.298125 21.455625 2.65875 21.72375 2 22 C2 22.99 2 23.98 2 25 C2.66 25 3.32 25 4 25 C4 25.66 4 26.32 4 27 C3.01 27 2.02 27 1 27 C0.67 27.99 0.34 28.98 0 30 C0 20.1 0 10.2 0 0 Z " fill="#011322" transform="translate(0,0)"/>
<path d="M0 0 C0.33 0.99 0.66 1.98 1 3 C-0.125 5.125 -0.125 5.125 -2 7 C-4.6875 7.75 -4.6875 7.75 -7 8 C-4.03 8.495 -4.03 8.495 -1 9 C-1.33 9.66 -1.66 10.32 -2 11 C-4.74086056 11.22223194 -6.43963721 11.34781139 -8.8125 9.875 C-10.55198782 7.12844028 -10.39769128 5.18153026 -10 2 C-7.64463991 -2.2950684 -4.23605512 -0.87918125 0 0 Z " fill="#153F61" transform="translate(312,79)"/>
<path d="M0 0 C1.11375 0.7425 1.11375 0.7425 2.25 1.5 C5.06318188 3.31923475 5.06318188 3.31923475 9 3 C9.33 5.97 9.66 8.94 10 12 C13.34252724 12.07427838 15.8035914 12.06546953 19 11 C18.67 11.99 18.34 12.98 18 14 C17.34 14 16.68 14 16 14 C15.67 14.66 15.34 15.32 15 16 C14.34 16 13.68 16 13 16 C13 15.34 13 14.68 13 14 C12.34 14 11.68 14 11 14 C11 14.66 11 15.32 11 16 C9.68 16.33 8.36 16.66 7 17 C6.20046862 13.71303767 5.90341064 12.28976808 7 9 C6.01 8.67 5.02 8.34 4 8 C3.34 7.01 2.68 6.02 2 5 C1.67 6.98 1.34 8.96 1 11 C0.67 11 0.34 11 0 11 C0 7.37 0 3.74 0 0 Z " fill="#061929" transform="translate(117,79)"/>
<path d="M0 0 C3.375 -0.125 3.375 -0.125 7 0 C9 2 9 2 9.125 4.625 C9.08375 5.40875 9.0425 6.1925 9 7 C8.34 7 7.68 7 7 7 C7.66 8.65 8.32 10.3 9 12 C8.01 11.34 7.02 10.68 6 10 C6 9.34 6 8.68 6 8 C4.35 8 2.7 8 1 8 C0.67 9.32 0.34 10.64 0 12 C0 8.04 0 4.08 0 0 Z " fill="#A2A7B2" transform="translate(179,78)"/>
<path d="M0 0 C5.61 0 11.22 0 17 0 C17 1.65 17 3.3 17 5 C15.04174127 5.02694851 13.08337774 5.04637218 11.125 5.0625 C10.03445312 5.07410156 8.94390625 5.08570313 7.8203125 5.09765625 C5 5 5 5 3 4 C2.67 4.66 2.34 5.32 2 6 C1.34 6 0.68 6 0 6 C0 4.02 0 2.04 0 0 Z " fill="#1C2D3D" transform="translate(40,0)"/>
<path d="M0 0 C2 0 4 0 6 0 C6 4.95 6 9.9 6 15 C9.3 15 12.6 15 16 15 C16 15.33 16 15.66 16 16 C14.02 16 12.04 16 10 16 C10 16.66 10 17.32 10 18 C11.32 18.33 12.64 18.66 14 19 C7.80152672 19.59600705 7.80152672 19.59600705 4.5625 17.1875 C2.26802048 12.50676177 2.67710355 8.12149648 3 3 C2.01 3 1.02 3 0 3 C0 2.01 0 1.02 0 0 Z " fill="#040C18" transform="translate(272,75)"/>
<path d="M0 0 C1.62463842 -0.05395478 3.24978541 -0.09277195 4.875 -0.125 C6.23238281 -0.15980469 6.23238281 -0.15980469 7.6171875 -0.1953125 C10 0 10 0 12 2 C11.67 2.99 11.34 3.98 11 5 C11.495 5.391875 11.99 5.78375 12.5 6.1875 C14.45593143 8.55091715 14.24207973 10.01435003 14 13 C13.34 13 12.68 13 12 13 C11.34 11.02 10.68 9.04 10 7 C7.36 6.67 4.72 6.34 2 6 C2 7.65 2 9.3 2 11 C1.67 9.68 1.34 8.36 1 7 C-1.31 6.67 -3.62 6.34 -6 6 C-4.5625 4.4375 -4.5625 4.4375 -2 3 C1.05380927 3.03153676 3.99653222 3.46733371 7 4 C4.69 3.01 2.38 2.02 0 1 C0 0.67 0 0.34 0 0 Z " fill="#040E21" transform="translate(248,72)"/>
<path d="M0 0 C6.22641509 0.22641509 6.22641509 0.22641509 8.9375 2.9375 C10 5 10 5 10 7 C5.38 7 0.76 7 -4 7 C-2 2 -2 2 0 0 Z " fill="#141F2D" transform="translate(216,47)"/>
<path d="M0 0 C1.9375 1.1875 1.9375 1.1875 3.9375 3.1875 C3.9375 4.5075 3.9375 5.8275 3.9375 7.1875 C2.968125 7.435 1.99875 7.6825 1 7.9375 C-0.010625 8.35 -1.02125 8.7625 -2.0625 9.1875 C-3.03127057 11.21993548 -3.03127057 11.21993548 -3.0625 13.1875 C-3.7225 13.1875 -4.3825 13.1875 -5.0625 13.1875 C-5.165625 12.424375 -5.26875 11.66125 -5.375 10.875 C-6.10614039 8.01690576 -6.83201913 7.03007115 -9.0625 5.1875 C-8.7325 4.5275 -8.4025 3.8675 -8.0625 3.1875 C-7.4025 3.8475 -6.7425 4.5075 -6.0625 5.1875 C-5.7325 3.5375 -5.4025 1.8875 -5.0625 0.1875 C-2.0625 -0.8125 -2.0625 -0.8125 0 0 Z " fill="#18181D" transform="translate(343.0625,108.8125)"/>
<path d="M0 0 C3.54997152 1.41998861 6.18729934 2.6121589 9.3125 4.625 C10.00988281 5.07101563 10.70726562 5.51703125 11.42578125 5.9765625 C11.94527344 6.31429687 12.46476562 6.65203125 13 7 C11.68 7.33 10.36 7.66 9 8 C9 7.34 9 6.68 9 6 C8.01 6 7.02 6 6 6 C6 6.66 6 7.32 6 8 C4.68 7.67 3.36 7.34 2 7 C1.67 15.25 1.34 23.5 1 32 C0.67 32 0.34 32 0 32 C0 21.44 0 10.88 0 0 Z " fill="#3A1230" transform="translate(39,64)"/>
<path d="M0 0 C0.33 0 0.66 0 1 0 C1.33 2.31 1.66 4.62 2 7 C2.33 7 2.66 7 3 7 C3.185625 8.11375 3.37125 9.2275 3.5625 10.375 C4.036875 11.57125 4.51125 12.7675 5 14 C8.51400668 15.54086322 8.51400668 15.54086322 12 16 C12 16.33 12 16.66 12 17 C6.25 18.125 6.25 18.125 4 17 C3.67 19.64 3.34 22.28 3 25 C2.01 25 1.02 25 0 25 C0 16.75 0 8.5 0 0 Z " fill="#929499" transform="translate(164,46)"/>
<path d="M0 0 C2.12472576 -0.05386629 4.24983652 -0.09273071 6.375 -0.125 C7.55835938 -0.14820312 8.74171875 -0.17140625 9.9609375 -0.1953125 C13 0 13 0 15 2 C14.625 4.125 14.625 4.125 14 6 C12.02 6 10.04 6 8 6 C8 5.01 8 4.02 8 3 C8.66 3 9.32 3 10 3 C10 2.34 10 1.68 10 1 C9.01 1 8.02 1 7 1 C6.34 2.65 5.68 4.3 5 6 C4.34 6 3.68 6 3 6 C2.67 5.34 2.34 4.68 2 4 C1.67 4.66 1.34 5.32 1 6 C0.01 6 -0.98 6 -2 6 C-2 5.01 -2 4.02 -2 3 C-1.34 3 -0.68 3 0 3 C0 2.01 0 1.02 0 0 Z " fill="#0C1F2E" transform="translate(13,0)"/>
<path d="M0 0 C1.32 0.33 2.64 0.66 4 1 C4.05399736 2.45792884 4.09279177 3.91642712 4.125 5.375 C4.14820313 6.18710938 4.17140625 6.99921875 4.1953125 7.8359375 C4 10 4 10 2 12 C1.34 11.67 0.68 11.34 0 11 C0 12.65 0 14.3 0 16 C-0.99 15.67 -1.98 15.34 -3 15 C-3.625 12.625 -3.625 12.625 -4 10 C-3.34 9.34 -2.68 8.68 -2 8 C-1.32707499 6.03309626 -1.32707499 6.03309626 -0.875 3.875 C-0.58625 2.59625 -0.2975 1.3175 0 0 Z " fill="#39221F" transform="translate(350,108)"/>
<path d="M0 0 C0.66 0.33 1.32 0.66 2 1 C1.835 1.78375 1.67 2.5675 1.5 3.375 C0.9376293 5.88208039 0.9376293 5.88208039 1 8 C2.65 8.33 4.3 8.66 6 9 C5.67 9.66 5.34 10.32 5 11 C5.99 11.66 6.98 12.32 8 13 C7.34 13.66 6.68 14.32 6 15 C2.00893354 14.4678578 -1.17556873 12.82443127 -4 10 C-4.125 6.375 -4.125 6.375 -4 3 C-3.34 3 -2.68 3 -2 3 C-2 2.34 -2 1.68 -2 1 C-1.34 0.67 -0.68 0.34 0 0 Z " fill="#051322" transform="translate(150,81)"/>
<path d="M0 0 C3.375 -0.125 3.375 -0.125 7 0 C7.66 0.66 8.32 1.32 9 2 C8.44444444 6.55555556 8.44444444 6.55555556 7 8 C5.00041636 8.04080783 2.99954746 8.04254356 1 8 C0.67 9.32 0.34 10.64 0 12 C0 8.04 0 4.08 0 0 Z " fill="#2D7BAB" transform="translate(251,78)"/>
<path d="M0 0 C0.66 0.33 1.32 0.66 2 1 C0.27227744 2.89716645 -1.45712734 4.79275305 -3.1875 6.6875 C-3.67025391 7.21794922 -4.15300781 7.74839844 -4.65039062 8.29492188 C-7.68659135 11.6164032 -10.80037021 14.83381581 -14 18 C-14.556875 18.598125 -15.11375 19.19625 -15.6875 19.8125 C-17 21 -17 21 -19 21 C-18.75 18.625 -18.75 18.625 -18 16 C-16.125 14.875 -16.125 14.875 -14 14 C-12.0792502 12.37475017 -11.07629453 11.16212589 -10 8.875 C-9 7 -9 7 -6 6 C-5.67 5.34 -5.34 4.68 -5 4 C-4.34 4 -3.68 4 -3 4 C-2.67 3.01 -2.34 2.02 -2 1 C-1.34 0.67 -0.68 0.34 0 0 Z " fill="#122534" transform="translate(19,58)"/>
<path d="M0 0 C0.5775 0.61875 1.155 1.2375 1.75 1.875 C3.80249821 3.81347053 5.43366582 4.90014249 8 6 C8 6.66 8 7.32 8 8 C6.02 8 4.04 8 2 8 C3.09396775 9.23190207 3.09396775 9.23190207 5.5 9.9375 C8 11 8 11 9 13 C7.63875 12.9690625 7.63875 12.9690625 6.25 12.9375 C3.57327412 12.9889755 1.53011948 13.2215017 -1 14 C-1.33 13.01 -1.66 12.02 -2 11 C-1.34 11 -0.68 11 0 11 C-0.08378906 10.37351562 -0.16757813 9.74703125 -0.25390625 9.1015625 C-0.35574219 8.28429687 -0.45757812 7.46703125 -0.5625 6.625 C-0.66691406 5.81289062 -0.77132812 5.00078125 -0.87890625 4.1640625 C-1 2 -1 2 0 0 Z " fill="#061020" transform="translate(239,80)"/>
<path d="M0 0 C2.5625 0.1875 2.5625 0.1875 4.5625 2.1875 C4.1875 5.3125 4.1875 5.3125 3.5625 8.1875 C1.25 8.875 1.25 8.875 -1.4375 9.1875 C-3.3125 8.0625 -3.3125 8.0625 -4.4375 6.1875 C-3.87661439 0.29820111 -3.87661439 0.29820111 0 0 Z " fill="#4E5660" transform="translate(154.4375,80.8125)"/>
<path d="M0 0 C0.33 0 0.66 0 1 0 C1.33 7.59 1.66 15.18 2 23 C2.99 23.33 3.98 23.66 5 24 C5 17.73 5 11.46 5 5 C5.33 5 5.66 5 6 5 C6 11.6 6 18.2 6 25 C4.68 25 3.36 25 2 25 C1.67 25.99 1.34 26.98 1 28 C0.34 28 -0.32 28 -1 28 C-1.33 26.02 -1.66 24.04 -2 22 C-1.34 22 -0.68 22 0 22 C0 14.74 0 7.48 0 0 Z " fill="#332722" transform="translate(34,29)"/>
<path d="M0 0 C4.95 0 9.9 0 15 0 C15 0.66 15 1.32 15 2 C14.01 2 13.02 2 12 2 C11.34 3.32 10.68 4.64 10 6 C6.6875 6.25 6.6875 6.25 3 6 C1.0625 4.125 1.0625 4.125 0 2 C0 1.34 0 0.68 0 0 Z " fill="#020A1C" transform="translate(212,56)"/>
<path d="M0 0 C0.66 0.33 1.32 0.66 2 1 C2 3.97 2 6.94 2 10 C2.66 10.33 3.32 10.66 4 11 C-0.1795645 13.78637633 -2.14668677 12.79562512 -7 12 C-7 10.02 -7 8.04 -7 6 C-5.68 6 -4.36 6 -3 6 C-2.67 6.33 -2.34 6.66 -2 7 C-2 6.34 -2 5.68 -2 5 C-1.34 5 -0.68 5 0 5 C0 3.35 0 1.7 0 0 Z " fill="#051323" transform="translate(188,80)"/>
<path d="M0 0 C0.99 0.33 1.98 0.66 3 1 C3 1.66 3 2.32 3 3 C3.66 3 4.32 3 5 3 C5 2.01 5 1.02 5 0 C5.66 0 6.32 0 7 0 C6.67 2.31 6.34 4.62 6 7 C4.68 7 3.36 7 2 7 C1.34 8.98 0.68 10.96 0 13 C-1.65 12.67 -3.3 12.34 -5 12 C-3.125 7.25 -3.125 7.25 -2 5 C-1.34 5 -0.68 5 0 5 C0 3.35 0 1.7 0 0 Z " fill="#081928" transform="translate(36,13)"/>
<path d="M0 0 C0.33 0.66 0.66 1.32 1 2 C1.66 2 2.32 2 3 2 C3.33 4.64 3.66 7.28 4 10 C4.33 8.35 4.66 6.7 5 5 C7 8 7 8 6.625 10.1875 C6.41875 10.785625 6.2125 11.38375 6 12 C0.375 13.125 0.375 13.125 -3 12 C-3.625 8.625 -3.625 8.625 -4 5 C-3.34 4.34 -2.68 3.68 -2 3 C-2 5.64 -2 8.28 -2 11 C-1.34 11 -0.68 11 0 11 C0 7.37 0 3.74 0 0 Z " fill="#070F1F" transform="translate(129,79)"/>
<path d="M0 0 C3.3 0 6.6 0 10 0 C9.6875 2.375 9.6875 2.375 9 5 C6 7 6 7 2.8125 6.625 C1.884375 6.41875 0.95625 6.2125 0 6 C0 4.02 0 2.04 0 0 Z " fill="#0D1725" transform="translate(145,56)"/>
<path d="M0 0 C1.65 0.33 3.3 0.66 5 1 C5 9.25 5 17.5 5 26 C4.34 25.67 3.68 25.34 3 25 C3 24.01 3 23.02 3 22 C2.34 21.67 1.68 21.34 1 21 C1.99 20.67 2.98 20.34 4 20 C4 17.36 4 14.72 4 12 C3.34 11.67 2.68 11.34 2 11 C2 10.01 2 9.02 2 8 C2.66 8 3.32 8 4 8 C3.67 6.68 3.34 5.36 3 4 C2.01 4.33 1.02 4.66 0 5 C0.33 5.99 0.66 6.98 1 8 C0.34 8.66 -0.32 9.32 -1 10 C-1.66 7.03 -2.32 4.06 -3 1 C-1.02 1.99 -1.02 1.99 1 3 C1.33 2.34 1.66 1.68 2 1 C1.34 0.67 0.68 0.34 0 0 Z " fill="#01081B" transform="translate(159,45)"/>
<path d="M0 0 C2.31 0 4.62 0 7 0 C8.04005702 3.38018531 8.08004482 6.4780279 8 10 C7.01 10 6.02 10 5 10 C5 10.66 5 11.32 5 12 C4.34 12 3.68 12 3 12 C1 5.375 1 5.375 1 2 C0.67 1.34 0.34 0.68 0 0 Z " fill="#021324" transform="translate(194,48)"/>
<path d="M0 0 C0.66 0 1.32 0 2 0 C2.83819158 1.62249941 3.6704116 3.24808497 4.5 4.875 C4.9640625 5.77992187 5.428125 6.68484375 5.90625 7.6171875 C7 10 7 10 7 12 C6.34 12 5.68 12 5 12 C5 11.01 5 10.02 5 9 C-0.01535052 9.32960216 -0.01535052 9.32960216 -4 12 C-3.33501617 7.61110675 -1.81242323 4.0188515 0 0 Z " fill="#24608B" transform="translate(232,78)"/>
<path d="M0 0 C0.33 1.65 0.66 3.3 1 5 C-4.94 5 -10.88 5 -17 5 C-17 4.67 -17 4.34 -17 4 C-14.36 3.67 -11.72 3.34 -9 3 C-9 2.01 -9 1.02 -9 0 C-2.25 -1.125 -2.25 -1.125 0 0 Z " fill="#040F1F" transform="translate(297,73)"/>
<path d="M0 0 C0 0.66 0 1.32 0 2 C-0.99 2.495 -0.99 2.495 -2 3 C-2.65772428 6.02934491 -2.65772428 6.02934491 -3 9 C-3.66 9 -4.32 9 -5 9 C-5.33 7.68 -5.66 6.36 -6 5 C-6.99 6.32 -7.98 7.64 -9 9 C-13.875 8.125 -13.875 8.125 -15 7 C-15.04063832 5.33382885 -15.042721 3.66611905 -15 2 C-14.34 3.32 -13.68 4.64 -13 6 C-11.68 6 -10.36 6 -9 6 C-9 4.35 -9 2.7 -9 1 C-5.92677456 0.08941469 -3.19902639 -0.08886184 0 0 Z " fill="#256492" transform="translate(328,81)"/>
<path d="M0 0 C2.33944736 0.28730055 4.6739143 0.61936779 7 1 C6.01 1.66 5.02 2.32 4 3 C3.42006301 5.19454681 3.42006301 5.19454681 3.3125 7.625 C3.24675781 8.44226563 3.18101562 9.25953125 3.11328125 10.1015625 C3.07589844 10.72804688 3.03851563 11.35453125 3 12 C2.34 12 1.68 12 1 12 C0.67 12.66 0.34 13.32 0 14 C-0.99 13.34 -1.98 12.68 -3 12 C-2.67 10.68 -2.34 9.36 -2 8 C-1.67 8 -1.34 8 -1 8 C-1.020625 6.865625 -1.04125 5.73125 -1.0625 4.5625 C-1 1 -1 1 0 0 Z " fill="#050C21" transform="translate(211,79)"/>
<path d="M0 0 C0.99 0 1.98 0 3 0 C3.50537432 5.30643041 2.30655751 7.86680312 -1 12 C-3.5376356 14.50303148 -4.60616177 14.99096265 -8.234375 15.07421875 C-9.97460938 14.88279297 -9.97460938 14.88279297 -11.75 14.6875 C-13.50570312 14.50767578 -13.50570312 14.50767578 -15.296875 14.32421875 C-16.18890625 14.21722656 -17.0809375 14.11023437 -18 14 C-18 13.67 -18 13.34 -18 13 C-16.78763672 12.96132813 -16.78763672 12.96132813 -15.55078125 12.921875 C-8.96401045 12.59117519 -8.96401045 12.59117519 -2.8125 10.4375 C-0.2283903 6.96231799 -0.21485956 4.29719119 0 0 Z " fill="#A7A8AD" transform="translate(136,49)"/>
<path d="M0 0 C3 0 6 0 9 0 C9 0.66 9 1.32 9 2 C7.7934375 2.4640625 7.7934375 2.4640625 6.5625 2.9375 C4.10919595 3.76335345 4.10919595 3.76335345 3 5 C2.76518307 7.18292774 2.58636677 9.37203174 2.4375 11.5625 C2.31181641 13.35880859 2.31181641 13.35880859 2.18359375 15.19140625 C2.12300781 16.11824219 2.06242188 17.04507813 2 18 C1.34 18 0.68 18 0 18 C0 12.06 0 6.12 0 0 Z " fill="#CDCFD1" transform="translate(233,46)"/>
<path d="M0 0 C0 1.98 0 3.96 0 6 C-0.66 6 -1.32 6 -2 6 C-2 6.66 -2 7.32 -2 8 C-1.34 8.33 -0.68 8.66 0 9 C0 11.97 0 14.94 0 18 C-1.32 17.34 -2.64 16.68 -4 16 C-3.979375 15.236875 -3.95875 14.47375 -3.9375 13.6875 C-3.87057159 10.89814214 -3.87057159 10.89814214 -5 8 C-4.7089396 5.08939597 -4.37852171 3.45738041 -2.5 1.1875 C-1 0 -1 0 0 0 Z " fill="#051629" transform="translate(163,47)"/>
<path d="M0 0 C0 2.64 0 5.28 0 8 C-0.99 8.495 -0.99 8.495 -2 9 C-2 8.34 -2 7.68 -2 7 C-2.61875 7.185625 -3.2375 7.37125 -3.875 7.5625 C-6 8 -6 8 -8 7 C-8 5.35 -8 3.7 -8 2 C-7.401875 1.855625 -6.80375 1.71125 -6.1875 1.5625 C-0.11111111 0 -0.11111111 0 0 0 Z " fill="#070F1D" transform="translate(145,81)"/>
<path d="M0 0 C0.66 0 1.32 0 2 0 C2 3.96 2 7.92 2 12 C1.34 12 0.68 12 0 12 C-1.5078125 10.25 -1.5078125 10.25 -3.125 8 C-3.66382813 7.2575 -4.20265625 6.515 -4.7578125 5.75 C-5.16773438 5.1725 -5.57765625 4.595 -6 4 C-6.33 6.64 -6.66 9.28 -7 12 C-7.33 12 -7.66 12 -8 12 C-8 8.37 -8 4.74 -8 1 C-4.23312136 2.88343932 -3.20578354 3.69132469 -1 7 C-0.67 4.69 -0.34 2.38 0 0 Z " fill="#2D76AD" transform="translate(273,78)"/>
<path d="M0 0 C3.125 0.375 3.125 0.375 6 1 C6 2.32 6 3.64 6 5 C4.02 5 2.04 5 0 5 C0 5.66 0 6.32 0 7 C1.98 7 3.96 7 6 7 C5.67 7.66 5.34 8.32 5 9 C-0.875 8.125 -0.875 8.125 -2 7 C-2.1875 4.5625 -2.1875 4.5625 -2 2 C-1.34 1.34 -0.68 0.68 0 0 Z " fill="#23618D" transform="translate(331,81)"/>
<path d="M0 0 C0 2.64 0 5.28 0 8 C-0.66 8 -1.32 8 -2 8 C-2 7.01 -2 6.02 -2 5 C-2.99 5 -3.98 5 -5 5 C-5 4.34 -5 3.68 -5 3 C-6.98 3 -8.96 3 -11 3 C-11 2.01 -11 1.02 -11 0 C-6.98195309 -0.84098656 -3.98196457 -1.05404945 0 0 Z " fill="#010C1E" transform="translate(291,80)"/>
<path d="M0 0 C2.6015625 0.0234375 2.6015625 0.0234375 5.625 0.375 C6.62789062 0.48585937 7.63078125 0.59671875 8.6640625 0.7109375 C9.82035156 0.85402344 9.82035156 0.85402344 11 1 C11.1875 4.375 11.1875 4.375 11 8 C6.93150591 10.71232939 4.83523216 10.30699887 0 10 C-2 8 -2 8 -2.25 5 C-2 2 -2 2 0 0 Z M0 2 C0 3.98 0 5.96 0 8 C4.28652662 9.11085525 4.28652662 9.11085525 8.375 7.8125 C10.44503001 5.90933583 10.44503001 5.90933583 10 2 C6.7 2 3.4 2 0 2 Z " fill="#A3A4A8" transform="translate(145,54)"/>
<path d="M0 0 C1.32 0.33 2.64 0.66 4 1 C4.33 0.67 4.66 0.34 5 0 C6.66617115 -0.04063832 8.33388095 -0.042721 10 0 C10.33 0.66 10.66 1.32 11 2 C9.35 2 7.7 2 6 2 C5.67 3.65 5.34 5.3 5 7 C6.98 7 8.96 7 11 7 C11 7.66 11 8.32 11 9 C8.6568787 8.74438677 6.32156597 8.40729228 4 8 C3.67 7.34 3.34 6.68 3 6 C2.01 6.99 1.02 7.98 0 9 C0 6.03 0 3.06 0 0 Z " fill="#8B8F99" transform="translate(132,81)"/>
<path d="M0 0 C0.99 0.33 1.98 0.66 3 1 C3 4.96 3 8.92 3 13 C2.34 13 1.68 13 1 13 C0.67 11.35 0.34 9.7 0 8 C-0.99 8 -1.98 8 -3 8 C-2.34 9.65 -1.68 11.3 -1 13 C-1.99 13 -2.98 13 -4 13 C-4 10.69 -4 8.38 -4 6 C-2.35 5.34 -0.7 4.68 1 4 C0.67 2.68 0.34 1.36 0 0 Z " fill="#0C1E2D" transform="translate(64,2)"/>
<path d="M0 0 C0.33 0 0.66 0 1 0 C1 4.62 1 9.24 1 14 C0.67 14 0.34 14 0 14 C-0.33 12.68 -0.66 11.36 -1 10 C-1.99 10.495 -1.99 10.495 -3 11 C-3.66 10.34 -4.32 9.68 -5 9 C-4.67 8.34 -4.34 7.68 -4 7 C-3.960008 5.00039988 -3.95653201 2.99952758 -4 1 C-2.02 1.495 -2.02 1.495 0 2 C0 1.34 0 0.68 0 0 Z " fill="#010516" transform="translate(232,50)"/>
<path d="M0 0 C0.61875 0.804375 1.2375 1.60875 1.875 2.4375 C3.74164041 5.03874519 3.74164041 5.03874519 6 6 C5.8125 7.875 5.8125 7.875 5 10 C3.35 10.66 1.7 11.32 0 12 C0 8.04 0 4.08 0 0 Z " fill="#041625" transform="translate(118,82)"/>
<path d="M0 0 C5.53269156 0.2813233 5.53269156 0.2813233 7.6875 2.1875 C8.0175 4.4975 8.3475 6.8075 8.6875 9.1875 C3.4075 9.1875 -1.8725 9.1875 -7.3125 9.1875 C-6.9825 8.1975 -6.6525 7.2075 -6.3125 6.1875 C-6.3125 6.8475 -6.3125 7.5075 -6.3125 8.1875 C-1.6925 8.1875 2.9275 8.1875 7.6875 8.1875 C6.6975 6.5375 5.7075 4.8875 4.6875 3.1875 C1.16805874 2.36317358 1.16805874 2.36317358 -2.3125 2.1875 C-2.9725 1.8575 -3.6325 1.5275 -4.3125 1.1875 C-3.3125 0.1875 -3.3125 0.1875 0 0 Z " fill="#D5D8DE" transform="translate(218.3125,45.8125)"/>
<path d="M0 0 C1.98 0 3.96 0 6 0 C5.5359375 0.7425 5.5359375 0.7425 5.0625 1.5 C3.58355618 4.97986781 3.37597149 8.24028509 3 12 C2.01 11.67 1.02 11.34 0 11 C-1.28571429 3.57142857 -1.28571429 3.57142857 0 0 Z " fill="#0C1928" transform="translate(207,47)"/>
<path d="M0 0 C11.70615034 -0.55353075 11.70615034 -0.55353075 16 3 C14.68 4.32 13.36 5.64 12 7 C11.34 6.67 10.68 6.34 10 6 C10.33 5.01 10.66 4.02 11 3 C7.37 3 3.74 3 0 3 C0 2.01 0 1.02 0 0 Z " fill="#1D2530" transform="translate(118,41)"/>
<path d="M0 0 C2.875 -0.125 2.875 -0.125 6 0 C8 2 8 2 8.125 5.625 C8.08375 6.73875 8.0425 7.8525 8 9 C7.34 9 6.68 9 6 9 C6 7.35 6 5.7 6 4 C4.68 3.67 3.36 3.34 2 3 C1.67 4.98 1.34 6.96 1 9 C0.67 9 0.34 9 0 9 C0 6.03 0 3.06 0 0 Z " fill="#727984" transform="translate(214,81)"/>
<path d="M0 0 C1.11375 0.7425 1.11375 0.7425 2.25 1.5 C5.06318188 3.31923475 5.06318188 3.31923475 9 3 C8.34 4.65 7.68 6.3 7 8 C6.01 8 5.02 8 4 8 C3.34 7.01 2.68 6.02 2 5 C1.67 6.98 1.34 8.96 1 11 C0.67 11 0.34 11 0 11 C0 7.37 0 3.74 0 0 Z " fill="#7F8691" transform="translate(117,79)"/>
<path d="M0 0 C2.375 -0.125 2.375 -0.125 5 0 C5.66 0.66 6.32 1.32 7 2 C6.625 4.125 6.625 4.125 6 6 C4.02 6 2.04 6 0 6 C0 4.02 0 2.04 0 0 Z " fill="#131B27" transform="translate(180,79)"/>
<path d="M0 0 C0.99 0 1.98 0 3 0 C3.33 2.31 3.66 4.62 4 7 C3.01 7.495 3.01 7.495 2 8 C-0.35981813 7.06421005 -2.69631264 6.06652192 -5 5 C-4.01 3.68 -3.02 2.36 -2 1 C-1.34 1.33 -0.68 1.66 0 2 C0 1.34 0 0.68 0 0 Z " fill="#15212F" transform="translate(140,56)"/>
<path d="M0 0 C1.65 0.33 3.3 0.66 5 1 C5.144375 1.78375 5.28875 2.5675 5.4375 3.375 C5.87798925 5.96421018 5.87798925 5.96421018 7 8 C5.35 8 3.7 8 2 8 C2 7.34 2 6.68 2 6 C1.01 5.67 0.02 5.34 -1 5 C-0.67 3.35 -0.34 1.7 0 0 Z " fill="#122534" transform="translate(9,46)"/>
<path d="M0 0 C0.33 0 0.66 0 1 0 C1 1.65 1 3.3 1 5 C0.34 5 -0.32 5 -1 5 C-1.33 6.32 -1.66 7.64 -2 9 C-4.97 9 -7.94 9 -11 9 C-11 8.34 -11 7.68 -11 7 C-9.02 6.67 -7.04 6.34 -5 6 C-5 5.01 -5 4.02 -5 3 C-4.34 3 -3.68 3 -3 3 C-2.67 2.34 -2.34 1.68 -2 1 C-2 1.99 -2 2.98 -2 4 C-1.34 4 -0.68 4 0 4 C0 2.68 0 1.36 0 0 Z " fill="#091B2B" transform="translate(180,86)"/>
<path d="M0 0 C1.32 0 2.64 0 4 0 C4.33 1.98 4.66 3.96 5 6 C3.34385343 6.38218767 1.67542976 6.71395102 0 7 C-1 6 -1 6 -1.125 3.5 C-1 1 -1 1 0 0 Z " fill="#0E273E" transform="translate(315,81)"/>
<path d="M0 0 C3.39157221 0.06553763 4.36412363 0.18411485 7.1875 2.25 C8.625 4.375 8.625 4.375 8.625 6.375 C7.965 6.375 7.305 6.375 6.625 6.375 C6.625 5.715 6.625 5.055 6.625 4.375 C2.70203567 3.06734522 -0.23502433 3.1778583 -4.375 3.375 C-5.035 4.035 -5.695 4.695 -6.375 5.375 C-6.375 0.55409851 -4.32340005 0.07181728 0 0 Z " fill="#B1B4B8" transform="translate(197.375,45.625)"/>
<path d="M0 0 C4.29 0 8.58 0 13 0 C8 4 8 4 4.8125 3.8125 C2 3 2 3 0 2 C0 1.34 0 0.68 0 0 Z " fill="#051525" transform="translate(43,0)"/>
<path d="M0 0 C0.66 0.66 1.32 1.32 2 2 C1.625 4.625 1.625 4.625 1 7 C2.32 7.33 3.64 7.66 5 8 C4.67 9.65 4.34 11.3 4 13 C2.35 12.67 0.7 12.34 -1 12 C-0.67 8.04 -0.34 4.08 0 0 Z " fill="#5D6977" transform="translate(332,110)"/>
<path d="M0 0 C0.99 0 1.98 0 3 0 C4.39935013 2.79870027 4.25265405 4.90498792 4 8 C2.5 9.875 2.5 9.875 1 11 C0.34 10.34 -0.32 9.68 -1 9 C-0.34 9 0.32 9 1 9 C0.835 7.88625 0.67 6.7725 0.5 5.625 C0 2 0 2 0 0 Z " fill="#182330" transform="translate(201,50)"/>
<path d="M0 0 C1.32 0.66 2.64 1.32 4 2 C3.67 2.99 3.34 3.98 3 5 C2.34 5 1.68 5 1 5 C1 5.99 1 6.98 1 8 C0.34 8 -0.32 8 -1 8 C-1.66 8.66 -2.32 9.32 -3 10 C-3.36923077 4.58461538 -3.36923077 4.58461538 -1.5 1.625 C-1.005 1.08875 -0.51 0.5525 0 0 Z " fill="#16222F" transform="translate(193,48)"/>
<path d="M0 0 C1.32 0 2.64 0 4 0 C6.04898287 4.21896866 6.21207997 7.65372146 6.125 12.3125 C6.10695313 13.56675781 6.08890625 14.82101563 6.0703125 16.11328125 C6.04710938 17.06589844 6.02390625 18.01851562 6 19 C5.67 19 5.34 19 5 19 C4.67 15.7 4.34 12.4 4 9 C3.67 9 3.34 9 3 9 C2.87625 8.030625 2.7525 7.06125 2.625 6.0625 C2.41875 5.051875 2.2125 4.04125 2 3 C1.34 2.67 0.68 2.34 0 2 C0 1.34 0 0.68 0 0 Z " fill="#033949" transform="translate(90,53)"/>
<path d="M0 0 C3 1 3 1 5 3 C4.01 3.33 3.02 3.66 2 4 C0.79117904 6.00016466 0.79117904 6.00016466 0 8 C-1.32 7.34 -2.64 6.68 -4 6 C-3.34 5.67 -2.68 5.34 -2 5 C-2 3.68 -2 2.36 -2 1 C-1.34 0.67 -0.68 0.34 0 0 Z " fill="#091B2F" transform="translate(88,40)"/>
<path d="M0 0 C1.2077558 3.62326739 0.54311128 4.64146369 -1 8 C-1.33 7.01 -1.66 6.02 -2 5 C-3.98 5.33 -5.96 5.66 -8 6 C-8.33 5.01 -8.66 4.02 -9 3 C-6 2 -3 1 0 0 Z " fill="#0C1B2B" transform="translate(192,41)"/>
<path d="M0 0 C0.66 0.33 1.32 0.66 2 1 C0.88200014 2.33920838 -0.24461897 3.67122556 -1.375 5 C-2.31472656 6.11375 -2.31472656 6.11375 -3.2734375 7.25 C-4.12808594 8.11625 -4.12808594 8.11625 -5 9 C-5.66 9 -6.32 9 -7 9 C-7 9.66 -7 10.32 -7 11 C-7.66 11 -8.32 11 -9 11 C-9 11.66 -9 12.32 -9 13 C-9.66 13 -10.32 13 -11 13 C-9.5 10 -9.5 10 -8 7 C-7.34 7 -6.68 7 -6 7 C-6 6.34 -6 5.68 -6 5 C-4.04072937 3.2856382 -2.04119788 1.61594832 0 0 Z " fill="#132635" transform="translate(252,15)"/>
<path d="M0 0 C0.66 0 1.32 0 2 0 C2 3.96 2 7.92 2 12 C1.34 12 0.68 12 0 12 C-0.103125 11.236875 -0.20625 10.47375 -0.3125 9.6875 C-1.04364039 6.82940576 -1.76951913 5.84257115 -4 4 C-3.67 3.34 -3.34 2.68 -3 2 C-2.34 2.66 -1.68 3.32 -1 4 C-0.67 2.68 -0.34 1.36 0 0 Z " fill="#89909C" transform="translate(338,110)"/>
<path d="M0 0 C1.4606285 2.64738916 2 3.89448334 2 7 C-1.75 8.125 -1.75 8.125 -4 7 C-3.67 5.35 -3.34 3.7 -3 2 C-2.01 2 -1.02 2 0 2 C0 1.34 0 0.68 0 0 Z " fill="#051425" transform="translate(172,81)"/>
<path d="M0 0 C0.99 0.33 1.98 0.66 3 1 C3 1.66 3 2.32 3 3 C3.66 3 4.32 3 5 3 C5 2.01 5 1.02 5 0 C5.66 0 6.32 0 7 0 C6.67 2.31 6.34 4.62 6 7 C5.01 6.67 4.02 6.34 3 6 C2.01 6.33 1.02 6.66 0 7 C0 4.69 0 2.38 0 0 Z " fill="#0E2130" transform="translate(36,13)"/>
<path d="M0 0 C0 2.97 0 5.94 0 9 C-0.99 8.01 -1.98 7.02 -3 6 C-3.66 6 -4.32 6 -5 6 C-5.33 7.32 -5.66 8.64 -6 10 C-7 7 -7 7 -6.3125 4.4375 C-4.88909948 1.7940419 -3.21752804 0 0 0 Z " fill="#394957" transform="translate(211,81)"/>
<path d="M0 0 C0.33 0.99 0.66 1.98 1 3 C4.60992379 2.34414811 4.60992379 2.34414811 8 1 C8 1.99 8 2.98 8 4 C9.32 4 10.64 4 12 4 C12 5.65 12 7.3 12 9 C11.319375 8.360625 10.63875 7.72125 9.9375 7.0625 C6.53092462 4.6706492 4.07496036 4.47018773 0 4 C-0.33 3.34 -0.66 2.68 -1 2 C-0.67 1.34 -0.34 0.68 0 0 Z " fill="#192430" transform="translate(195,42)"/>
<path d="M0 0 C0.66 0.33 1.32 0.66 2 1 C-2.29 5.29 -6.58 9.58 -11 14 C-11 11 -11 11 -8.75 8.625 C-7.8425 7.75875 -6.935 6.8925 -6 6 C-5.278125 5.0925 -4.55625 4.185 -3.8125 3.25 C-2 1 -2 1 0 0 Z " fill="#172A39" transform="translate(267,0)"/>
<path d="M0 0 C1.32 0.99 2.64 1.98 4 3 C3.67 3.66 3.34 4.32 3 5 C2.34 4.67 1.68 4.34 1 4 C1 5.65 1 7.3 1 9 C0.01 8.67 -0.98 8.34 -2 8 C-2.6875 5.6875 -2.6875 5.6875 -3 3 C-1.5625 1.1875 -1.5625 1.1875 0 0 Z " fill="#060D1B" transform="translate(349,115)"/>
<path d="M0 0 C0.66 0 1.32 0 2 0 C2 0.99 2 1.98 2 3 C0.02 3.33 -1.96 3.66 -4 4 C-4 6.31 -4 8.62 -4 11 C-4.33 11 -4.66 11 -5 11 C-5 8.69 -5 6.38 -5 4 C-5.99 4 -6.98 4 -8 4 C-8 3.34 -8 2.68 -8 2 C-6.865625 1.855625 -5.73125 1.71125 -4.5625 1.5625 C-1.19222799 1.38828522 -1.19222799 1.38828522 0 0 Z " fill="#733F2D" transform="translate(363,107)"/>
<path d="M0 0 C1.98 0 3.96 0 6 0 C5.67 1.65 5.34 3.3 5 5 C3.35 5 1.7 5 0 5 C0 3.35 0 1.7 0 0 Z " fill="#031229" transform="translate(252,80)"/>
<path d="M0 0 C0.763125 0.639375 1.52625 1.27875 2.3125 1.9375 C4.88246713 4.14232781 4.88246713 4.14232781 8 5 C8.99 5.33 9.98 5.66 11 6 C5.72 8.04 5.72 8.04 2.75 7.875 C1 7 1 7 -0.3125 5.125 C-1 3 -1 3 0 0 Z " fill="#08192C" transform="translate(65,18)"/>
<path d="M0 0 C0.66 0.33 1.32 0.66 2 1 C2 3.97 2 6.94 2 10 C2.66 10.33 3.32 10.66 4 11 C3.01 11 2.02 11 1 11 C-2 7.66666667 -2 7.66666667 -2 5 C-1.34 5 -0.68 5 0 5 C0 3.35 0 1.7 0 0 Z " fill="#050B19" transform="translate(188,80)"/>
<path d="M0 0 C2.31 0 4.62 0 7 0 C5.76736651 3.69790046 4.79947549 3.9354846 1.4375 5.6875 C0.19806641 6.34298828 0.19806641 6.34298828 -1.06640625 7.01171875 C-1.70449219 7.33785156 -2.34257813 7.66398437 -3 8 C-2.67 6.68 -2.34 5.36 -2 4 C-0.68 4 0.64 4 2 4 C1.34 2.68 0.68 1.36 0 0 Z " fill="#1A1B25" transform="translate(74,38)"/>
<path d="M0 0 C0.66 0.66 1.32 1.32 2 2 C1.34 2 0.68 2 0 2 C0.08378906 2.66386719 0.16757812 3.32773438 0.25390625 4.01171875 C1.26537786 12.78207381 1.26537786 12.78207381 0 17 C-2 15 -2 15 -2.01171875 11.77734375 C-1.85123047 9.87662109 -1.85123047 9.87662109 -1.6875 7.9375 C-1.58824219 6.66777344 -1.48898437 5.39804688 -1.38671875 4.08984375 C-1 1 -1 1 0 0 Z " fill="#060D1A" transform="translate(331,107)"/>
<path d="M0 0 C0.33 0 0.66 0 1 0 C1 2.64 1 5.28 1 8 C0.34 8 -0.32 8 -1 8 C-1.33 7.34 -1.66 6.68 -2 6 C-2.99 6 -3.98 6 -5 6 C-5 5.01 -5 4.02 -5 3 C-4.34 3 -3.68 3 -3 3 C-1.97980427 2.0206121 -0.97850195 1.02104551 0 0 Z " fill="#A4A9B3" transform="translate(325,110)"/>
<path d="M0 0 C1.76462683 3.08809695 2 4.23312136 2 8 C0.1875 8.625 0.1875 8.625 -2 9 C-2.99 8.34 -3.98 7.68 -5 7 C-4.01 7 -3.02 7 -2 7 C-2 5.68 -2 4.36 -2 3 C-1.34 3 -0.68 3 0 3 C0 2.01 0 1.02 0 0 Z " fill="#0A1F34" transform="translate(312,84)"/>
<path d="M0 0 C0.66 0 1.32 0 2 0 C2 3.96 2 7.92 2 12 C1.34 12 0.68 12 0 12 C-0.19477739 10.37585622 -0.38059458 8.75063577 -0.5625 7.125 C-0.66691406 6.22007813 -0.77132812 5.31515625 -0.87890625 4.3828125 C-1 2 -1 2 0 0 Z " fill="#7B828B" transform="translate(127,78)"/>
<path d="M0 0 C1.0209375 0.02513672 1.0209375 0.02513672 2.0625 0.05078125 C3.0834375 0.05658203 3.0834375 0.05658203 4.125 0.0625 C6.0625 0.36328125 6.0625 0.36328125 9.0625 2.36328125 C8.7325 4.34328125 8.4025 6.32328125 8.0625 8.36328125 C7.7325 8.36328125 7.4025 8.36328125 7.0625 8.36328125 C6.4025 6.38328125 5.7425 4.40328125 5.0625 2.36328125 C1.7625 2.69328125 -1.5375 3.02328125 -4.9375 3.36328125 C-1.9375 0.36328125 -1.9375 0.36328125 0 0 Z " fill="#BFC0C7" transform="translate(147.9375,45.63671875)"/>
<path d="M0 0 C0.66 0.33 1.32 0.66 2 1 C1.67 2.32 1.34 3.64 1 5 C-1.60582371 5.93065133 -2.64198224 6.14917407 -5.25 5.0625 C-5.8275 4.711875 -6.405 4.36125 -7 4 C-6.030625 3.525625 -5.06125 3.05125 -4.0625 2.5625 C-1.19522563 1.29806053 -1.19522563 1.29806053 0 0 Z " fill="#081F36" transform="translate(85,93)"/>
<path d="M0 0 C0.66 0.33 1.32 0.66 2 1 C1.01 2.98 0.02 4.96 -1 7 C-1.66 7 -2.32 7 -3 7 C-3.33 7.99 -3.66 8.98 -4 10 C-4 7.69 -4 5.38 -4 3 C-3.34 3 -2.68 3 -2 3 C-2 2.34 -2 1.68 -2 1 C-1.34 0.67 -0.68 0.34 0 0 Z " fill="#03091A" transform="translate(150,81)"/>
<path d="M0 0 C0.33 0.66 0.66 1.32 1 2 C1.66 2 2.32 2 3 2 C3 4.64 3 7.28 3 10 C2.01 10.33 1.02 10.66 0 11 C0 7.37 0 3.74 0 0 Z " fill="#03071A" transform="translate(129,79)"/>
<path d="M0 0 C2.83022097 3.99560608 1.76210446 7.42737323 1 12 C0.34 12 -0.32 12 -1 12 C-1.02687279 10.18757948 -1.04633715 8.37504767 -1.0625 6.5625 C-1.07410156 5.55316406 -1.08570313 4.54382813 -1.09765625 3.50390625 C-1 1 -1 1 0 0 Z " fill="#80838B" transform="translate(191,78)"/>
<path d="M0 0 C1.37562854 1.28965176 2.70766393 2.62689293 4 4 C4 4.66 4 5.32 4 6 C2.02 6.66 0.04 7.32 -2 8 C-1.814375 7.38125 -1.62875 6.7625 -1.4375 6.125 C-0.76313824 3.95839822 -0.76313824 3.95839822 -2 2 C-1.34 2 -0.68 2 0 2 C0 1.34 0 0.68 0 0 Z " fill="#142534" transform="translate(210,73)"/>
<path d="M0 0 C0.33 0.66 0.66 1.32 1 2 C3.31 2 5.62 2 8 2 C8 2.66 8 3.32 8 4 C4.8125 5.25 4.8125 5.25 1 6 C-1.9375 4.125 -1.9375 4.125 -4 2 C-2.68 1.34 -1.36 0.68 0 0 Z " fill="#201622" transform="translate(48,59)"/>
<path d="M0 0 C2.0625 0.4375 2.0625 0.4375 4 1 C3.34 1 2.68 1 2 1 C2 2.65 2 4.3 2 6 C0.35 6 -1.3 6 -3 6 C-1.125 1.125 -1.125 1.125 0 0 Z " fill="#040F1E" transform="translate(215,48)"/>
<path d="M0 0 C2.64 0.33 5.28 0.66 8 1 C7.34 1.66 6.68 2.32 6 3 C6.66 3.66 7.32 4.32 8 5 C5.39417629 5.93065133 4.35801776 6.14917407 1.75 5.0625 C1.1725 4.711875 0.595 4.36125 0 4 C1.32 4 2.64 4 4 4 C4 3.34 4 2.68 4 2 C2.68 1.67 1.36 1.34 0 1 C0 0.67 0 0.34 0 0 Z " fill="#CC6F28" transform="translate(68,29)"/>
<path d="M0 0 C1.32 0 2.64 0 4 0 C4 2.64 4 5.28 4 8 C2.68 8 1.36 8 0 8 C0.33 6.35 0.66 4.7 1 3 C1.66 3 2.32 3 3 3 C3 2.34 3 1.68 3 1 C2.01 1.33 1.02 1.66 0 2 C0 1.34 0 0.68 0 0 Z " fill="#0A0C1E" transform="translate(325,80)"/>
<path d="M0 0 C3.3 0.99 6.6 1.98 10 3 C9.67 3.99 9.34 4.98 9 6 C8.505 5.690625 8.01 5.38125 7.5 5.0625 C4.02013219 3.58355618 0.75971491 3.37597149 -3 3 C-2.01 2.01 -1.02 1.02 0 0 Z " fill="#1A2837" transform="translate(151,43)"/>
<path d="M0 0 C-2.52956528 3.0916909 -5.22454612 3.90931332 -9 5 C-9.33 4.01 -9.66 3.02 -10 2 C-6.49223216 0.39644899 -3.85645121 -0.22036864 0 0 Z " fill="#202835" transform="translate(153,47)"/>
<path d="M0 0 C3 0 6 0 9 0 C9 0.66 9 1.32 9 2 C2.25 4 2.25 4 0 4 C0 2.68 0 1.36 0 0 Z " fill="#ADB2B4" transform="translate(233,46)"/>
<path d="M0 0 C3.3 0.33 6.6 0.66 10 1 C9.67 1.66 9.34 2.32 9 3 C5.37 3 1.74 3 -2 3 C-1.34 2.01 -0.68 1.02 0 0 Z " fill="#010C1C" transform="translate(119,36)"/>
<path d="M0 0 C0.66 0.66 1.32 1.32 2 2 C1.96712417 4.72869407 1.43602229 7.2966618 1 10 C-0.98 10 -2.96 10 -5 10 C-5 9.01 -5 8.02 -5 7 C-4.01 7 -3.02 7 -2 7 C-2 7.66 -2 8.32 -2 9 C-1.34 9 -0.68 9 0 9 C0 6.03 0 3.06 0 0 Z " fill="#1A3B5A" transform="translate(266,81)"/>
<path d="M0 0 C1.11375 0.556875 1.11375 0.556875 2.25 1.125 C-0.38904371 2.53877341 -2.82120629 3.49740135 -5.75 4.125 C-6.08 3.135 -6.41 2.145 -6.75 1.125 C-4.02098495 -0.69434337 -3.21400584 -1.02263822 0 0 Z " fill="#081220" transform="translate(149.75,42.875)"/>
<path d="M0 0 C0.598125 0.350625 1.19625 0.70125 1.8125 1.0625 C1.1525 1.7225 0.4925 2.3825 -0.1875 3.0625 C-0.58514263 5.05071313 -0.92525349 7.05194339 -1.1875 9.0625 C-1.5175 9.0625 -1.8475 9.0625 -2.1875 9.0625 C-2.31125 7.94875 -2.435 6.835 -2.5625 5.6875 C-2.8340813 2.03146323 -2.8340813 2.03146323 -5.1875 0.0625 C-2.1875 -0.9375 -2.1875 -0.9375 0 0 Z " fill="#46413D" transform="translate(343.1875,108.9375)"/>
<path d="M0 0 C0.99 0 1.98 0 3 0 C3.33 0.99 3.66 1.98 4 3 C3.34 3 2.68 3 2 3 C2 4.65 2 6.3 2 8 C1.01 8.495 1.01 8.495 0 9 C0 6.03 0 3.06 0 0 Z " fill="#575E6E" transform="translate(132,81)"/>
<path d="M0 0 C0.33 0.66 0.66 1.32 1 2 C2.32 1.67 3.64 1.34 5 1 C5 3.31 5 5.62 5 8 C2.5 5.6875 2.5 5.6875 0 3 C0 2.01 0 1.02 0 0 Z " fill="#050E23" transform="translate(268,78)"/>
<path d="M0 0 C6.875 3.75 6.875 3.75 8 6 C6.68 6.33 5.36 6.66 4 7 C3.34 5.35 2.68 3.7 2 2 C1.34 2 0.68 2 0 2 C0 1.34 0 0.68 0 0 Z " fill="#24152D" transform="translate(53,72)"/>
<path d="M0 0 C2 1 2 1 2 1 Z M-4 1 C-1.9375 1.4375 -1.9375 1.4375 0 2 C0 2.99 0 3.98 0 5 C-1.98 5.33 -3.96 5.66 -6 6 C-5.125 2.125 -5.125 2.125 -4 1 Z " fill="#001120" transform="translate(222,64)"/>
<path d="M0 0 C1.65 0 3.3 0 5 0 C5.33 0.66 5.66 1.32 6 2 C6.99 2.66 7.98 3.32 9 4 C7.02 4.33 5.04 4.66 3 5 C2.01 3.35 1.02 1.7 0 0 Z " fill="#101C2A" transform="translate(212,57)"/>
<path d="M0 0 C0.99 0 1.98 0 3 0 C3 2.97 3 5.94 3 9 C2.34 9 1.68 9 1 9 C1.33 7.68 1.66 6.36 2 5 C1.01 4.67 0.02 4.34 -1 4 C-0.67 2.68 -0.34 1.36 0 0 Z " fill="#07182D" transform="translate(184,48)"/>
<path d="M0 0 C7.85 -0.30192308 7.85 -0.30192308 11 2 C11.33 2.99 11.66 3.98 12 5 C11.01 5.495 11.01 5.495 10 6 C9.484375 5.34 8.96875 4.68 8.4375 4 C5.20004245 1.34362457 3.07447719 1.68657868 -1 2 C-0.67 1.34 -0.34 0.68 0 0 Z " fill="#C7CBD0" transform="translate(215,46)"/>
<path d="M0 0 C-0.33 1.98 -0.66 3.96 -1 6 C-1.99 5.67 -2.98 5.34 -4 5 C-3.67 4.67 -3.34 4.34 -3 4 C-3.66 3.67 -4.32 3.34 -5 3 C-5 2.34 -5 1.68 -5 1 C-3 0 -3 0 0 0 Z " fill="#0C1D2D" transform="translate(165,82)"/>
<path d="M0 0 C0.99 0.66 1.98 1.32 3 2 C2.67 2.66 2.34 3.32 2 4 C1.77532169 5.53668865 1.59203195 7.07968054 1.4375 8.625 C1.35371094 9.44226563 1.26992187 10.25953125 1.18359375 11.1015625 C1.12300781 11.72804688 1.06242187 12.35453125 1 13 C0.67 13 0.34 13 0 13 C-0.06058594 12.37351562 -0.12117188 11.74703125 -0.18359375 11.1015625 C-0.26738281 10.28429687 -0.35117188 9.46703125 -0.4375 8.625 C-0.51871094 7.81289062 -0.59992188 7.00078125 -0.68359375 6.1640625 C-0.89090114 3.95727195 -0.89090114 3.95727195 -2 2 C-1.34 2 -0.68 2 0 2 C0 1.34 0 0.68 0 0 Z " fill="#14232E" transform="translate(116,76)"/>
<path d="M0 0 C0.66 0.66 1.32 1.32 2 2 C1.96712417 4.72869407 1.43602229 7.2966618 1 10 C0.01 9.67 -0.98 9.34 -2 9 C-2.25 3.375 -2.25 3.375 0 0 Z " fill="#020615" transform="translate(209,49)"/>
<path d="M0 0 C0.66 0 1.32 0 2 0 C2 0.66 2 1.32 2 2 C2.66 2 3.32 2 4 2 C4 2.66 4 3.32 4 4 C1.69 4.66 -0.62 5.32 -3 6 C-2.67 4.68 -2.34 3.36 -2 2 C-1.34 2 -0.68 2 0 2 C0 1.34 0 0.68 0 0 Z " fill="#0F2231" transform="translate(43,6)"/>
<path d="M0 0 C0.598125 0.309375 1.19625 0.61875 1.8125 0.9375 C4.08956772 2.10209704 4.08956772 2.10209704 7 3 C6.34 3.66 5.68 4.32 5 5 C1.375 4.625 1.375 4.625 -2 4 C-2 3.34 -2 2.68 -2 2 C-1.34 2 -0.68 2 0 2 C0 1.34 0 0.68 0 0 Z " fill="#111C2B" transform="translate(333,120)"/>
<path d="M0 0 C1.32 0 2.64 0 4 0 C3.67 1.65 3.34 3.3 3 5 C1.68 4.67 0.36 4.34 -1 4 C-0.67 2.68 -0.34 1.36 0 0 Z " fill="#343A4B" transform="translate(342,118)"/>
<path d="M0 0 C2.33944736 0.28730055 4.6739143 0.61936779 7 1 C6.01 1.66 5.02 2.32 4 3 C3.01 2.34 2.02 1.68 1 1 C1 3.64 1 6.28 1 9 C0.67 9 0.34 9 0 9 C-0.87890625 2.84765625 -0.87890625 2.84765625 -1 1 C-0.67 0.67 -0.34 0.34 0 0 Z " fill="#030B0E" transform="translate(211,79)"/>
<path d="M0 0 C2.875 -0.125 2.875 -0.125 6 0 C6.66 0.66 7.32 1.32 8 2 C7.67 2.99 7.34 3.98 7 5 C3.535 3.02 3.535 3.02 0 1 C0 0.67 0 0.34 0 0 Z " fill="#151627" transform="translate(36,56)"/>
<path d="M0 0 C0.66 0 1.32 0 2 0 C1.74438677 2.3431213 1.40729228 4.67843403 1 7 C0.01 7.495 0.01 7.495 -1 8 C-1.66 7.34 -2.32 6.68 -3 6 C-2.01 4.02 -1.02 2.04 0 0 Z " fill="#021021" transform="translate(230,53)"/>
<path d="M0 0 C1.32 1.65 2.64 3.3 4 5 C3.67 5.66 3.34 6.32 3 7 C2.01 7.33 1.02 7.66 0 8 C0 5.36 0 2.72 0 0 Z " fill="#050913" transform="translate(118,82)"/>
<path d="M0 0 C1.65 0 3.3 0 5 0 C5.33 1.32 5.66 2.64 6 4 C3.03 3.505 3.03 3.505 0 3 C0 2.01 0 1.02 0 0 Z " fill="#040F1B" transform="translate(242,80)"/>
<path d="M0 0 C1.2065625 0.0309375 1.2065625 0.0309375 2.4375 0.0625 C2.7675 1.3825 3.0975 2.7025 3.4375 4.0625 C2.4475 4.3925 1.4575 4.7225 0.4375 5.0625 C-0.8825 3.7425 -2.2025 2.4225 -3.5625 1.0625 C-2.5625 0.0625 -2.5625 0.0625 0 0 Z " fill="#0F1A29" transform="translate(85.5625,31.9375)"/>
<path d="M0 0 C0.66 1.32 1.32 2.64 2 4 C-2 4 -2 4 -4 3 C-4 2.34 -4 1.68 -4 1 C-2 0 -2 0 0 0 Z " fill="#ED0B69" transform="translate(48,64)"/>
<path d="M0 0 C0.66 0.33 1.32 0.66 2 1 C2 1.99 2 2.98 2 4 C2.66 4.66 3.32 5.32 4 6 C3.01 6.33 2.02 6.66 1 7 C-0.32 5.35 -1.64 3.7 -3 2 C-2.01 1.34 -1.02 0.68 0 0 Z " fill="#15181E" transform="translate(59,58)"/>
<path d="M0 0 C0.66 0.33 1.32 0.66 2 1 C2.625 3.0625 2.625 3.0625 3 5 C0.03 4.505 0.03 4.505 -3 4 C-3 3.34 -3 2.68 -3 2 C-2.01 1.34 -1.02 0.68 0 0 Z " fill="#D57523" transform="translate(52,57)"/>
<path d="M0 0 C0.66 0.66 1.32 1.32 2 2 C1.01 3.485 1.01 3.485 0 5 C-0.66 5 -1.32 5 -2 5 C-2 6.98 -2 8.96 -2 11 C-2.33 11 -2.66 11 -3 11 C-3.36923077 4.6 -3.36923077 4.6 -1.5 1.5625 C-1.005 1.046875 -0.51 0.53125 0 0 Z " fill="#B5B8BE" transform="translate(213,47)"/>
<path d="M0 0 C0.33 0.99 0.66 1.98 1 3 C1.66 3 2.32 3 3 3 C2.34 5.64 1.68 8.28 1 11 C0.67 11 0.34 11 0 11 C0 7.37 0 3.74 0 0 Z " fill="#D2D4D7" transform="translate(165,46)"/>
<path d="M0 0 C1.32 0.66 2.64 1.32 4 2 C2.68 3.32 1.36 4.64 0 6 C-0.66 5.67 -1.32 5.34 -2 5 C-1 2 -1 2 0 0 Z " fill="#101D2C" transform="translate(130,42)"/>
<path d="M0 0 C0.33 0 0.66 0 1 0 C0.67 2.31 0.34 4.62 0 7 C-1.65 5.35 -3.3 3.7 -5 2 C-4.01 1.67 -3.02 1.34 -2 1 C-1.34 1.33 -0.68 1.66 0 2 C0 1.34 0 0.68 0 0 Z " fill="#131E2C" transform="translate(138,40)"/>
</svg>
